<svg xmlns="http://www.w3.org/2000/svg" width="80" height="60" viewBox="5600 3800 4000 4000">
  <g transform="scale(1,-1) translate(0,-11520)">
    <g fill="#2d2b35"><path d="M6550 6288 c0 -772 4 -1409 9 -1417 7 -11 52 -12 242 -8 265 5 299 12 444 82 163 79 281 197 360 360 69 142 79 191 79 405 1 205 -4 225 -67 290 -53 55 -108 73 -212 72 -134 -2 -214 14 -282 54 -120 73 -161 151 -198 374 -39 237 -36 240 232 240 122 0 186 4 203 13 14 7 77 81 140 164 142 187 148 194 218 231 87 45 148 56 286 49 254 -13 444 -91 616 -253 119 -112 193 -232 243 -389 45 -142 49 -223 44 -860 -3 -503 -6 -600 -20 -657 -83 -339 -330 -595 -663 -685 -99 -27 -99 -27 -880 -31 -781 -3 -781 -3 -788 -49 -3 -25 -6 -135 -6 -244 l0 -199 734 0 c755 0 872 5 1026 41 328 77 610 263 815 539 72 97 165 279 204 403 62 196 63 206 68 860 3 367 1 642 -6 710 -19 213 -58 352 -146 530 -195 391 -561 667 -1001 753 -79 16 -179 18 -892 21 l-802 4 0 -1403z"/><path d="M7707 6812 c-34 -21 -67 -86 -67 -133 0 -65 68 -149 122 -149 31 0 75 27 99 61 31 43 31 132 1 181 -36 57 -100 74 -155 40z"/></g>
    <g fill="white"><path d="M8100 7683 c330 -24 645 -170 884 -409 208 -207 336 -453 391 -749 11 -61 13 11 14 548 l1 617 -667 -2 c-368 -1 -648 -3 -623 -5z"/><path d="M7809 7186 c-59 -17 -142 -62 -171 -93 -13 -13 -75 -92 -138 -176 -63 -83 -126 -157 -140 -164 -17 -9 -81 -13 -203 -13 -268 0 -271 -3 -232 -240 37 -223 78 -301 198 -374 68 -40 148 -56 282 -54 104 1 159 -17 212 -72 63 -65 68 -85 67 -290 0 -214 -10 -263 -79 -405 -79 -163 -197 -281 -360 -360 -145 -70 -179 -77 -444 -82 -190 -4 -235 -3 -242 8 -5 8 -8 -122 -7 -301 1 -173 3 -301 5 -283 4 32 4 32 786 35 782 4 782 4 881 31 333 90 580 346 663 685 14 57 17 154 20 657 5 637 1 718 -44 860 -50 157 -124 277 -243 389 -120 113 -257 188 -412 226 -107 27 -332 36 -399 16z m6 -368 c66 -30 93 -161 46 -227 -24 -34 -68 -61 -99 -61 -29 0 -83 41 -103 80 -24 45 -24 93 1 144 32 67 94 92 155 64z"/><path d="M9373 4987 c-28 -175 -136 -427 -248 -577 -228 -308 -553 -503 -935 -563 -14 -3 251 -5 588 -6 l612 -1 0 610 c0 336 -1 610 -3 610 -1 0 -8 -33 -14 -73z"/></g>
    <g fill="#c15f3c"><path d="M5777 5146 c2 -171 3 -176 32 -241 28 -62 106 -155 130 -155 5 0 11 -4 13 -9 2 -5 56 -39 121 -76 64 -36 117 -70 117 -74 0 -4 -44 -31 -97 -61 -195 -106 -252 -160 -297 -280 -22 -58 -29 -367 -9 -375 19 -7 389 43 453 61 135 38 242 147 289 296 8 23 13 149 16 352 4 287 3 320 -14 369 -37 108 -86 177 -161 231 -81 59 -136 74 -367 106 -120 17 -220 30 -223 30 -3 0 -4 -78 -3 -174z"/></g>
  </g>
</svg>
