<?xml version="1.0" encoding="UTF-8"?>
<svg xmlns="http://www.w3.org/2000/svg" version="1.1"
     width="752" height="560" viewBox="0 0 7520 5600">
  
  <!-- VARIABLE: Background — change fill to customize -->
  <rect id="background" width="100%" height="100%" fill="white"/>
  <g transform="translate(0,5600) scale(1,-1)">
  
  <!-- VARIABLE: Skin/body color — change fill to customize -->
  <g id="skin" fill="#c4a87a">
    <path d="M3485 4601 c-522 -93 -955 -406 -1189 -861 -64 -124 -120 -272 -132
-351 -7 -39 -7 -39 34 -39 22 0 42 3 44 8 2 4 59 5 128 2 69 -3 126 -5 127 -5
1 0 -5 29 -14 63 -29 115 4 230 89 314 65 63 139 91 241 91 66 0 87 -5 142
-32 161 -79 234 -255 174 -417 -26 -69 -115 -162 -181 -189 -45 -19 -45 -19
23 -83 107 -100 199 -247 237 -382 12 -42 32 -149 32 -173 0 -27 -24 -20 -58
18 -18 19 -62 49 -98 66 -59 28 -76 32 -157 33 -53 1 -113 -5 -142 -13 -62
-18 -158 -70 -196 -106 -16 -14 -29 -22 -29 -16 0 6 -3 10 -7 10 -22 -4 -31 4
-36 29 -4 17 -16 33 -31 40 -14 6 -26 16 -26 22 0 11 -57 44 -80 46 -8 0 -25
4 -37 8 -22 7 -136 -26 -161 -47 -7 -5 -10 -17 -7 -26 3 -8 3 -12 -1 -8 -8 8
-44 -44 -38 -55 2 -3 13 -4 24 -1 14 4 22 17 26 44 6 36 14 44 37 40 5 -1 5 4
1 10 -4 8 0 9 16 4 15 -5 20 -4 16 4 -4 6 -2 11 3 11 6 0 11 -5 11 -11 0 -5 5
-7 10 -4 6 3 10 1 10 -5 0 -7 7 -10 14 -7 11 4 13 1 10 -11 -5 -14 -4 -15 5
-2 12 17 15 41 4 39 -5 -1 -19 0 -33 1 -23 2 -23 3 5 9 17 4 32 3 33 -1 2 -4
13 -8 25 -9 21 0 21 -1 2 -9 -19 -8 -19 -9 -1 -9 10 -1 25 7 33 17 14 16 14
16 9 0 -6 -20 10 -35 17 -16 3 10 7 10 20 0 13 -11 14 -17 4 -34 -10 -16 -9
-22 1 -25 19 -7 58 -45 65 -63 4 -12 6 -13 6 -1 1 11 5 10 16 -5 13 -16 16
-17 25 -4 6 9 10 10 10 3 0 -7 17 4 38 23 20 19 69 50 108 70 180 87 376 53
490 -85 46 -56 46 -56 40 -144 -8 -121 -28 -194 -86 -312 -122 -251 -332 -423
-597 -491 -76 -19 -120 -24 -217 -23 -66 0 -142 4 -168 8 -48 8 -48 8 -48
-234 0 -178 3 -245 13 -256 34 -42 170 -149 284 -225 563 -377 1269 -503 1959
-351 243 54 542 183 768 331 l108 71 -363 5 c-200 3 -373 9 -384 14 -16 6 -17
6 -5 -3 12 -9 11 -11 -8 -11 -12 0 -64 -11 -115 -24 -126 -34 -192 -43 -182
-26 6 10 4 12 -9 7 -10 -4 -20 -7 -22 -7 -3 0 -2 -4 1 -10 3 -5 -1 -10 -9 -10
-8 0 -18 4 -21 10 -3 5 -11 10 -16 10 -6 0 -7 -4 -4 -10 11 -18 -52 -23 -315
-24 -308 -1 -422 7 -413 31 5 13 3 14 -16 3 -25 -13 -112 -5 -146 13 -11 6
-28 10 -39 8 -10 -1 -15 2 -12 7 10 17 -12 24 -34 12 -14 -8 -20 -8 -20 0 0 6
-5 8 -10 5 -6 -4 -44 1 -85 11 -65 15 -83 16 -142 5 -37 -7 -72 -12 -78 -10
-11 2 -30 -4 -81 -26 -41 -18 -73 -10 -67 16 4 15 2 18 -12 13 -16 -6 -17 -3
-11 22 5 16 10 40 13 54 2 13 10 38 18 55 7 16 17 41 21 55 12 44 134 236 134
214 1 -9 24 26 25 36 0 3 10 19 23 35 13 17 20 23 16 15 -4 -8 -14 -24 -23
-35 -14 -18 -13 -18 9 1 14 12 33 20 43 19 9 -2 15 1 11 6 -3 5 -10 7 -15 4
-15 -10 -10 12 6 25 8 7 12 16 9 21 -3 5 0 8 8 7 7 -2 12 3 10 10 -1 8 2 11 7
8 10 -6 34 18 26 26 -3 3 2 11 12 19 11 9 14 10 9 2 -10 -18 9 -16 23 1 7 8
41 33 76 56 36 23 62 47 58 53 -3 6 -1 7 5 3 7 -4 58 13 114 38 57 24 129 50
161 57 31 8 57 16 57 19 0 3 26 6 57 8 32 1 60 8 64 14 4 7 22 9 47 4 23 -3
43 -3 46 2 7 12 225 -5 296 -23 129 -32 281 -88 268 -98 -9 -6 -6 -7 9 -4 15
3 43 -8 83 -34 33 -21 64 -39 69 -39 5 0 15 -8 22 -18 13 -15 12 -16 -4 -3
-15 12 -20 12 -30 1 -9 -10 -9 -11 1 -6 6 4 18 4 25 -1 6 -4 17 -8 23 -8 17 0
144 -117 138 -127 -3 -4 -10 -6 -15 -2 -5 3 -6 10 -3 16 4 7 2 8 -4 4 -17 -10
-17 -9 33 -60 25 -26 45 -43 45 -38 0 5 -14 23 -31 40 -18 17 -26 32 -20 36
13 9 96 -81 97 -106 1 -10 5 -22 9 -26 5 -4 5 2 2 13 -4 12 6 5 28 -19 19 -21
32 -42 30 -47 -3 -4 3 -12 12 -18 10 -5 15 -13 11 -17 -11 -10 -40 17 -34 32
3 7 -2 18 -10 25 -12 10 -14 7 -12 -20 1 -17 8 -31 15 -31 7 0 13 -4 13 -10 0
-5 7 -10 15 -10 8 0 15 -4 15 -10 0 -5 -5 -10 -12 -10 -6 0 -8 -3 -5 -6 4 -4
14 -1 24 7 9 8 14 9 10 3 -4 -7 0 -14 8 -18 24 -9 7 -32 -38 -52 -23 -10 -44
-21 -47 -25 -3 -3 -15 -10 -28 -13 -27 -9 -78 -54 -69 -62 3 -3 14 3 25 14 11
11 24 17 28 14 4 -4 4 -1 0 6 -4 7 -1 12 8 12 8 0 43 17 77 38 34 20 80 48
103 61 22 13 106 65 186 116 80 50 206 130 282 176 75 46 133 86 128 89 -4 3
-28 40 -54 83 -46 79 -46 79 -46 438 0 197 -3 359 -7 359 -5 0 -5 159 -1 352
9 384 3 468 -46 661 -133 525 -518 945 -1036 1133 -246 89 -559 118 -805 75z
m288 -277 c9 -3 13 -14 10 -27 -4 -18 -3 -19 6 -7 9 13 12 13 23 1 7 -8 8 -11
2 -8 -13 7 -12 -32 2 -41 28 -21 -1 -110 -32 -98 -8 3 -12 2 -9 -3 8 -14 -33
-24 -71 -17 -22 5 -43 19 -60 41 -23 30 -25 37 -13 52 10 11 10 14 2 9 -16 -9
-16 2 -2 44 16 45 91 74 142 54z m152 -284 c4 -6 -1 -7 -11 -3 -12 4 -15 3
-10 -5 4 -7 1 -12 -8 -12 -9 0 -16 5 -16 11 0 5 -5 7 -11 3 -17 -10 15 -25 44
-20 18 3 23 -1 25 -17 1 -15 -1 -18 -7 -9 -5 9 -10 -2 -14 -30 -5 -41 6 -64
25 -52 13 9 9 -4 -8 -20 -14 -15 -14 -16 4 -16 11 0 23 6 25 13 4 7 6 8 6 1 1
-19 -22 -33 -64 -39 -40 -6 -76 7 -62 21 4 4 13 2 19 -4 15 -15 32 -16 23 -2
-3 6 1 10 9 10 9 0 16 5 16 10 0 13 -17 13 -25 -1 -4 -6 -14 -8 -22 -5 -9 4
-21 1 -29 -4 -9 -9 -15 -6 -23 9 -9 15 -8 22 4 28 13 8 13 12 -5 31 -25 27
-25 33 1 66 31 40 99 61 114 36z m-410 -9 c-9 -15 32 -23 55 -11 11 6 25 8 30
5 6 -3 10 -1 10 6 0 8 4 8 15 -1 8 -7 12 -16 9 -21 -3 -5 0 -8 6 -7 16 4 30
-36 19 -53 -8 -11 -9 -10 -7 5 2 12 -5 24 -18 31 -12 6 -19 17 -16 25 5 13 3
13 -13 0 -11 -9 -16 -10 -11 -2 4 6 3 12 -3 12 -5 0 -13 -5 -17 -11 -4 -6 -19
-9 -36 -5 -20 4 -27 2 -22 -6 4 -7 3 -8 -4 -4 -15 9 -15 -7 -1 -21 13 -13 4
-63 -11 -63 -6 0 -10 5 -10 10 0 6 5 10 10 10 6 0 10 7 10 15 0 8 -4 15 -10
15 -5 0 -10 12 -11 28 -1 25 -2 24 -10 -8 -4 -19 -6 -40 -4 -47 2 -7 -1 -15
-7 -19 -8 -5 -9 8 -5 42 3 33 12 54 27 66 24 20 34 23 25 9z m51 -124 c4 -4 2
-7 -4 -7 -21 0 -13 -17 10 -23 12 -4 29 -1 37 6 12 9 13 9 7 0 -4 -8 -2 -13 5
-13 22 0 1 -12 -38 -21 -41 -9 -77 -3 -68 11 3 5 13 6 22 3 11 -4 14 -3 9 6
-8 13 -37 11 -47 -3 -4 -4 -10 -3 -13 3 -4 6 -2 11 4 11 6 0 8 5 5 10 -4 6
-11 7 -17 4 -7 -4 -8 -2 -4 4 4 6 13 9 20 6 8 -3 16 -1 20 4 6 10 42 9 52 -1z
m1220 -111 c104 -48 171 -135 194 -252 23 -119 -37 -257 -142 -326 -70 -46
-116 -60 -195 -59 -82 1 -153 32 -222 96 -72 67 -96 128 -95 240 0 78 3 97 27
142 47 90 140 162 237 184 54 12 139 1 196 -25z m-840 -134 c18 -12 34 -49 34
-79 0 -23 -20 -49 -100 -128 -98 -98 -100 -100 -100 -147 0 -66 42 -100 105
-84 34 9 49 40 55 116 5 65 5 65 54 65 49 0 49 0 47 -85 -2 -73 -6 -90 -28
-122 -36 -53 -101 -82 -165 -75 -28 4 -66 15 -84 26 -34 20 -35 20 -72 1 -80
-40 -162 -34 -223 17 -47 40 -69 96 -69 176 0 68 0 68 53 65 52 -3 52 -3 57
-76 4 -62 9 -77 29 -93 56 -46 141 -6 141 66 0 33 -11 48 -111 151 -74 77
-109 120 -105 130 3 9 6 19 6 23 0 5 9 20 21 35 20 26 20 26 232 26 117 0 217
-4 223 -8z m1222 -626 c29 -8 75 -29 102 -46 56 -36 108 -92 91 -98 -6 -2 -9
-8 -5 -13 3 -5 0 -9 -5 -9 -6 0 -11 5 -11 11 0 6 -7 9 -15 5 -18 -7 -38 27
-24 41 6 6 2 18 -11 33 -19 22 -20 22 -20 3 0 -11 3 -23 7 -27 4 -4 6 -49 4
-101 -1 -56 2 -102 9 -115 9 -16 8 -25 -1 -36 -7 -9 -9 -29 -4 -57 3 -23 9
-57 11 -76 6 -46 16 -59 25 -33 8 22 29 31 29 12 0 -5 -4 -10 -8 -10 -4 0 -9
-11 -10 -26 -1 -17 2 -23 10 -18 8 5 9 0 5 -16 -3 -12 0 -31 6 -42 9 -16 9
-22 -1 -25 -9 -4 -10 -9 -2 -18 15 -18 -66 -90 -138 -123 -75 -34 -185 -41
-268 -18 -69 20 -168 81 -158 98 4 6 3 8 -3 5 -19 -12 -100 104 -87 125 4 6 3
8 -4 4 -13 -8 -26 29 -16 45 4 7 3 9 -4 5 -15 -9 -25 71 -20 160 11 161 131
309 293 360 54 17 158 17 223 0z m181 -291 c-2 -30 -7 -45 -16 -45 -11 0 -11
4 -2 21 8 15 8 24 0 32 -16 16 -13 37 4 37 12 0 15 -10 14 -45z"/>
    <path d="M3816 3994 c-20 -19 -20 -23 3 -53 18 -24 18 -57 0 -45 -5 3 -6 -2
-2 -11 3 -9 9 -13 12 -8 3 5 22 14 41 21 34 11 34 11 3 6 -29 -5 -31 -3 -26
18 3 13 2 19 -3 15 -4 -4 -13 2 -20 15 -12 23 -4 39 26 51 12 4 12 6 -2 6 -9
1 -24 -6 -32 -15z"/>
    <path d="M5301 2356 c-7 -9 -26 -16 -41 -16 -16 0 -30 -7 -34 -16 -3 -9 -2
-12 5 -9 5 4 16 2 24 -5 17 -14 40 -3 75 36 14 16 18 23 8 16 -12 -9 -17 -10
-20 -1 -2 7 -8 6 -17 -5z"/>
    <path d="M5138 2255 c-3 -3 -32 -9 -64 -14 -59 -9 -59 -9 -9 -10 28 0 70 6 95
13 41 14 43 15 14 15 -17 1 -33 -1 -36 -4z"/>
    <path d="M2197 2566 c-4 -9 -2 -16 3 -16 6 0 10 -7 10 -16 0 -9 7 -14 17 -12
26 5 23 52 -3 56 -12 2 -24 -4 -27 -12z"/>
    <path d="M2180 2490 c11 -7 12 -10 2 -10 -18 0 -45 -28 -38 -39 3 -5 15 -11
26 -14 16 -4 20 0 20 18 0 13 3 30 6 39 4 11 0 16 -12 16 -16 0 -17 -2 -4 -10z"/>
    <path d="M2487 2409 c-15 -17 -16 -25 -8 -47 11 -26 11 -26 7 -2 -5 24 -4 24
9 6 13 -17 15 -17 15 -4 0 9 7 24 16 32 16 17 11 37 -9 35 -7 0 -20 -10 -30
-20z"/>
    <path d="M2426 2382 c-2 -4 -8 -23 -14 -42 -8 -30 -7 -36 7 -37 9 -1 25 -3 36
-5 13 -2 20 3 20 15 0 9 -4 16 -10 15 -5 -2 -9 -9 -9 -16 2 -9 -4 -8 -17 4
-24 22 -24 31 1 39 11 3 20 10 20 15 0 11 -28 21 -34 12z"/>
    <path d="M2177 2323 c-4 -6 3 -19 15 -29 12 -11 18 -13 13 -5 -6 10 -4 13 6 9
8 -3 23 0 33 8 17 12 15 13 -17 11 -20 -2 -38 1 -40 7 -2 7 -6 6 -10 -1z"/>
    <path d="M2335 2280 c-10 -11 -14 -20 -9 -21 5 -1 -2 -5 -16 -9 -20 -6 -16 -8
23 -9 34 -1 46 -4 41 -13 -5 -7 -3 -8 5 -3 9 5 7 12 -8 26 -11 11 -18 26 -15
34 8 21 1 19 -21 -5z"/>
    <path d="M4420 1310 c0 -5 -7 -10 -16 -10 -15 0 -44 -23 -44 -34 0 -3 9 -6 20
-6 11 0 20 5 20 10 0 6 18 10 40 10 33 0 40 3 40 20 0 16 -7 20 -30 20 -16 0
-30 -4 -30 -10z"/>
    <path d="M4000 849 c0 -7 -12 -10 -30 -7 -16 3 -30 1 -30 -4 0 -4 21 -8 46 -8
25 0 43 4 39 9 -3 5 5 12 17 14 17 3 14 5 -9 6 -19 0 -33 -4 -33 -10z"/>
  </g>
  
  <!-- FIXED: Details, eyes, accessories — do not change -->
  <g id="details" fill="#5a3e28">
    <path d="M3579 4626 c-2 -2 -29 -6 -59 -9 -83 -9 -185 -31 -260 -57 -69 -24
-216 -84 -224 -91 -6 -5 -18 -9 -28 -9 -10 0 -18 -3 -18 -8 0 -4 -21 -17 -47
-29 -46 -21 -67 -35 -203 -131 -78 -55 -264 -244 -316 -319 -21 -32 -44 -62
-50 -68 -39 -34 -194 -376 -215 -476 -11 -53 -22 -62 -85 -78 -51 -13 -118
-37 -163 -60 -92 -47 -108 -56 -136 -78 -78 -62 -147 -129 -187 -181 -23 -31
-46 -58 -50 -60 -5 -2 -8 -8 -8 -12 0 -5 -11 -25 -24 -45 -14 -19 -36 -68 -51
-108 -15 -39 -30 -81 -35 -92 -42 -101 -45 -341 -7 -485 35 -131 184 -378 258
-427 13 -9 42 -33 64 -53 61 -57 180 -124 283 -161 l92 -33 0 -242 c0 -242 0
-242 82 -315 44 -41 91 -81 103 -89 13 -8 51 -35 86 -60 35 -25 76 -52 91 -60
15 -8 64 -36 110 -61 100 -56 218 -111 296 -140 110 -40 232 -79 250 -79 9 0
-50 23 -133 50 -189 63 -413 173 -578 284 -114 76 -250 183 -284 225 -10 11
-13 78 -13 256 0 242 0 242 48 234 26 -4 102 -8 168 -8 220 -1 412 68 587 212
76 63 174 193 227 302 58 118 78 191 86 312 6 88 6 88 -40 144 -114 138 -310
172 -490 85 -39 -20 -88 -51 -108 -70 -21 -19 -38 -30 -38 -23 0 7 -4 6 -10
-3 -9 -13 -12 -13 -24 3 -11 14 -15 15 -19 5 -4 -10 -6 -10 -6 1 -1 15 -41 56
-63 64 -10 3 -11 9 -1 25 10 17 9 23 -4 34 -13 10 -17 10 -20 0 -7 -19 -23 -4
-17 16 5 16 5 16 -9 0 -8 -10 -23 -18 -33 -17 -18 0 -18 1 1 9 19 8 19 9 -2 9
-12 1 -23 5 -25 9 -1 4 -16 5 -33 1 -28 -6 -28 -7 -5 -9 14 -1 28 -2 33 -1 11
2 8 -22 -4 -39 -9 -13 -10 -12 -5 2 3 12 1 15 -10 11 -7 -3 -14 0 -14 7 0 6
-4 8 -10 5 -5 -3 -10 -1 -10 4 0 6 -5 11 -11 11 -5 0 -7 -5 -3 -11 4 -8 -1 -9
-16 -4 -16 5 -20 4 -16 -4 4 -6 4 -11 -1 -10 -23 4 -31 -4 -37 -40 -4 -27 -12
-40 -26 -44 -11 -3 -22 -2 -24 1 -6 11 30 63 38 55 4 -4 4 0 1 8 -3 9 0 21 7
26 25 21 139 54 161 47 12 -4 29 -8 37 -8 23 -2 80 -35 80 -46 0 -6 12 -16 26
-22 15 -7 27 -23 31 -40 5 -25 14 -33 36 -29 4 0 7 -4 7 -10 0 -6 13 2 29 16
38 36 134 88 196 106 29 8 89 14 142 13 81 -1 98 -5 157 -33 36 -17 80 -47 98
-66 34 -38 58 -45 58 -18 0 24 -20 131 -32 173 -38 135 -130 282 -237 382 -68
64 -68 64 -23 83 66 27 155 120 181 189 60 162 -13 338 -174 417 -55 27 -76
32 -142 32 -102 0 -176 -28 -241 -91 -85 -84 -118 -199 -89 -314 9 -34 15 -63
14 -63 -1 0 -58 2 -127 5 -69 3 -126 2 -128 -2 -2 -5 -22 -8 -44 -8 -41 0 -41
0 -34 39 12 79 68 227 132 351 225 437 631 742 1134 851 138 30 390 37 535 15
187 -29 303 -64 470 -141 442 -204 771 -600 891 -1072 49 -193 55 -277 46
-661 -4 -193 -4 -352 1 -352 4 0 7 -162 7 -359 0 -359 0 -359 46 -438 26 -43
50 -80 54 -83 5 -3 -53 -43 -128 -89 -76 -46 -202 -126 -282 -176 -80 -51
-164 -103 -186 -116 -23 -13 -69 -41 -103 -61 -34 -21 -69 -38 -77 -38 -9 0
-12 -5 -8 -12 4 -7 4 -10 0 -6 -4 3 -17 -3 -28 -14 -11 -11 -22 -17 -25 -14
-9 8 42 53 69 62 13 3 25 10 28 13 3 4 24 15 47 25 45 20 62 43 38 52 -8 4
-12 11 -8 18 4 6 -1 5 -10 -3 -10 -8 -20 -11 -24 -7 -3 3 -1 6 5 6 7 0 12 5
12 10 0 6 -7 10 -15 10 -8 0 -15 5 -15 10 0 6 -6 10 -13 10 -7 0 -14 14 -15
31 -2 27 0 30 12 20 8 -7 13 -18 10 -25 -6 -15 23 -42 34 -32 4 4 -1 12 -11
17 -9 6 -15 14 -12 18 2 5 -11 26 -30 47 -22 24 -32 31 -28 19 3 -11 3 -17 -2
-13 -4 4 -8 16 -9 26 -1 25 -84 115 -97 106 -6 -4 2 -19 20 -36 17 -17 31 -35
31 -40 0 -5 -20 12 -45 38 -38 39 -49 64 -29 64 3 0 3 -4 -1 -9 -3 -5 -1 -12
4 -15 5 -4 12 -2 15 2 6 10 -121 127 -138 127 -6 0 -17 4 -23 8 -7 5 -19 5
-25 1 -10 -5 -10 -4 -1 6 10 11 15 11 30 -1 16 -13 17 -12 4 4 -7 9 -17 17
-22 17 -5 0 -36 18 -69 39 -40 26 -68 37 -83 34 -15 -3 -18 -2 -9 4 13 10
-139 66 -268 98 -71 18 -289 35 -296 23 -3 -5 -23 -5 -46 -2 -25 5 -43 3 -47
-4 -4 -6 -32 -13 -64 -14 -31 -2 -57 -5 -57 -8 0 -3 -26 -11 -57 -19 -32 -7
-104 -33 -161 -57 -56 -25 -107 -42 -114 -38 -6 4 -8 3 -5 -3 4 -6 -22 -30
-58 -53 -35 -23 -69 -48 -76 -56 -14 -17 -33 -19 -23 -1 5 8 2 7 -9 -2 -10 -8
-15 -16 -12 -19 8 -8 -16 -32 -26 -26 -5 3 -8 0 -7 -8 2 -7 -3 -12 -10 -10 -8
1 -11 -2 -8 -7 3 -5 -1 -14 -9 -21 -16 -13 -21 -35 -6 -25 5 3 12 1 15 -4 4
-5 -2 -8 -11 -6 -10 1 -29 -7 -43 -19 -22 -19 -23 -19 -9 -1 9 11 19 27 23 35
4 8 -3 2 -16 -15 -13 -16 -23 -32 -23 -35 -1 -10 -24 -45 -25 -36 0 22 -122
-170 -134 -214 -4 -14 -14 -39 -21 -55 -8 -17 -16 -42 -18 -55 -3 -14 -8 -38
-13 -54 -6 -25 -5 -28 11 -22 14 5 16 2 12 -13 -6 -26 26 -34 67 -16 51 22 70
28 81 26 6 -2 41 3 78 10 59 11 77 10 142 -5 41 -10 79 -15 85 -11 5 3 10 1
10 -5 0 -8 6 -8 20 0 22 12 44 5 34 -12 -3 -5 2 -8 12 -7 11 2 28 -2 39 -8 34
-18 121 -26 146 -13 19 11 21 10 16 -3 -9 -24 105 -32 413 -31 263 1 326 6
315 24 -3 6 -2 10 4 10 5 0 13 -5 16 -10 3 -6 13 -10 21 -10 8 0 13 4 10 9 -3
5 1 12 10 15 22 9 26 8 18 -5 -9 -16 63 -5 183 27 51 13 103 24 115 24 19 0
20 2 8 11 -12 9 -11 9 5 3 11 -5 184 -11 384 -14 l363 -5 -108 -71 c-272 -179
-566 -295 -909 -360 -70 -13 -70 -13 -10 -8 57 5 96 12 195 36 64 15 267 82
320 106 107 47 206 93 220 102 8 5 40 23 70 38 104 55 225 146 319 241 52 53
91 89 86 81 -8 -13 -6 -13 8 -1 9 7 15 17 12 21 -2 4 7 18 20 30 14 13 25 20
25 15 0 -9 65 60 113 120 18 21 25 35 17 31 -8 -5 1 5 20 22 19 17 32 31 29
32 -4 0 9 16 27 36 19 20 31 41 27 47 -3 7 -3 9 2 5 11 -10 56 52 48 65 -3 6
-1 7 5 3 7 -4 12 -2 12 3 0 20 3 26 19 38 9 7 12 13 7 13 -6 0 -1 7 10 15 10
8 16 15 12 15 -5 0 1 9 12 20 12 12 18 25 15 30 -4 6 -2 10 2 10 11 0 47 60
36 60 -4 0 -3 4 3 8 17 11 46 71 39 82 -7 12 -65 -16 -65 -31 0 -6 -4 -8 -9
-5 -5 3 -20 -4 -33 -17 -14 -12 -32 -23 -39 -25 -8 -2 -18 -9 -24 -16 -10 -13
-16 -16 -36 -16 -5 0 -7 -6 -3 -12 4 -7 4 -10 -1 -6 -10 10 -86 -32 -79 -43 3
-5 -2 -6 -10 -3 -17 7 -49 -19 -38 -31 4 -4 2 -6 -3 -5 -34 7 -93 -28 -77 -45
4 -5 1 -5 -5 -1 -7 4 -21 3 -31 -3 -14 -7 -21 -5 -31 11 -16 25 -50 84 -67
117 -10 19 -13 176 -13 737 -1 429 -5 744 -11 791 -19 139 -62 308 -105 408
-7 17 -20 51 -28 76 -19 56 -123 239 -148 259 -3 3 -14 19 -23 37 -9 18 -22
36 -29 40 -7 4 -20 19 -29 33 -45 70 -350 340 -383 340 -4 0 -19 9 -35 20 -78
56 -352 172 -460 195 -179 39 -231 45 -389 45 -92 0 -170 -2 -172 -4z m-1335
-2076 c0 -16 -6 -26 -17 -28 -10 -2 -17 3 -17 12 0 9 -4 16 -10 16 -5 0 -7 7
-3 16 10 25 48 13 47 -16z m-48 -66 c-3 -9 -6 -26 -6 -39 0 -18 -4 -22 -20
-18 -11 3 -23 9 -26 14 -7 11 20 39 38 39 10 0 9 3 -2 10 -13 8 -12 10 4 10
12 0 16 -5 12 -16z m339 -64 c3 -6 -1 -17 -9 -26 -9 -8 -16 -23 -16 -32 0 -13
-2 -13 -15 4 -13 18 -14 18 -9 -6 4 -24 4 -24 -7 2 -8 22 -7 30 8 47 20 22 39
26 48 11z m-75 -50 c0 -5 -9 -12 -20 -15 -25 -8 -25 -17 -1 -39 13 -12 19 -13
17 -4 0 7 4 14 9 16 6 1 10 -6 10 -15 0 -12 -7 -17 -20 -15 -11 2 -27 4 -36 5
-14 1 -15 7 -7 37 6 19 12 38 14 42 6 9 34 -1 34 -12z m-233 -53 c32 2 34 1
17 -11 -10 -8 -25 -11 -33 -8 -10 4 -12 1 -6 -9 5 -8 -1 -6 -13 5 -12 10 -19
23 -15 29 4 7 8 8 10 1 2 -6 20 -9 40 -7z m129 -32 c-3 -8 4 -23 15 -34 15
-14 17 -21 8 -26 -8 -5 -10 -4 -5 3 5 9 -7 12 -41 13 -39 1 -43 3 -23 9 14 4
21 8 16 9 -5 1 -1 10 9 21 22 24 29 26 21 5z m2124 -985 c0 -17 -7 -20 -40
-20 -22 0 -40 -4 -40 -10 0 -5 -9 -10 -20 -10 -11 0 -20 3 -20 6 0 11 29 34
44 34 9 0 16 5 16 10 0 6 14 10 30 10 23 0 30 -4 30 -20z m-438 -447 c-12 -2
-20 -9 -17 -14 4 -5 -14 -9 -39 -9 -25 0 -46 4 -46 8 0 5 14 7 30 4 18 -3 30
0 30 7 0 6 14 10 33 10 23 -1 26 -3 9 -6z"/>
    <path d="M3674 4316 c-20 -9 -35 -25 -43 -46 -14 -42 -14 -53 2 -44 8 5 8 2
-2 -9 -12 -15 -10 -22 13 -52 17 -22 38 -36 60 -41 38 -7 79 3 71 17 -3 5 1 6
9 3 31 -12 60 77 32 98 -14 9 -15 48 -2 41 6 -3 5 0 -2 8 -11 12 -14 12 -23
-1 -9 -12 -10 -11 -6 7 8 35 -49 45 -109 19z"/>
    <path d="M3854 4040 c-22 -9 -64 -56 -64 -72 0 -5 9 -19 20 -30 18 -19 18 -23
5 -31 -12 -6 -13 -13 -4 -28 8 -15 14 -18 23 -9 8 5 20 8 29 4 8 -3 18 -1 22
5 8 14 25 14 25 1 0 -5 -7 -10 -16 -10 -8 0 -12 -4 -9 -10 9 -14 -8 -13 -23 2
-6 6 -15 8 -19 4 -14 -14 22 -27 62 -21 42 6 65 20 64 39 0 7 -2 6 -6 -1 -2
-7 -14 -13 -25 -13 -18 0 -18 1 -4 16 17 16 21 29 8 20 -19 -12 -30 11 -25 52
4 28 9 39 14 30 6 -9 8 -6 7 9 -2 16 -7 20 -25 17 -29 -5 -61 10 -44 20 6 4
11 2 11 -3 0 -6 7 -11 16 -11 9 0 12 5 8 12 -5 8 -2 9 10 5 10 -4 15 -3 11 3
-7 12 -42 12 -71 0z m-4 -37 c-30 -12 -38 -28 -26 -51 7 -13 16 -19 20 -15 5
4 6 -2 3 -15 -5 -21 -3 -23 26 -18 31 5 31 5 -3 -6 -19 -7 -38 -16 -41 -21 -3
-5 -9 -1 -12 8 -4 9 -3 14 2 11 18 -12 18 21 0 45 -10 13 -19 27 -19 31 0 13
32 38 48 37 14 0 14 -2 2 -6z"/>
    <path d="M3490 4022 c-15 -12 -24 -33 -27 -66 -4 -34 -3 -47 5 -42 6 4 9 12 7
19 -2 7 0 28 4 47 8 32 9 33 10 8 1 -16 6 -28 11 -28 6 0 10 -7 10 -15 0 -8
-4 -15 -10 -15 -5 0 -10 -4 -10 -10 0 -5 4 -10 10 -10 15 0 24 50 11 63 -14
14 -14 30 1 21 7 -4 8 -3 4 4 -5 8 2 10 22 6 17 -4 32 -1 36 5 4 6 12 11 17
11 6 0 7 -6 3 -12 -5 -8 0 -7 11 2 16 13 18 13 13 0 -3 -8 4 -19 16 -25 13 -7
20 -19 18 -31 -2 -15 -1 -16 7 -5 11 17 -3 57 -19 53 -6 -1 -9 2 -6 7 3 5 -1
14 -9 21 -11 9 -15 9 -15 1 0 -7 -4 -9 -10 -6 -5 3 -19 1 -30 -5 -23 -12 -64
-4 -55 11 9 14 -1 11 -25 -9z"/>
    <path d="M3514 3908 c-4 -5 -12 -7 -20 -4 -7 3 -16 0 -20 -6 -4 -6 -3 -8 4 -4
6 3 13 2 17 -4 3 -5 1 -10 -5 -10 -6 0 -8 -5 -4 -11 3 -6 9 -7 13 -3 10 14 39
16 47 3 5 -9 2 -10 -9 -6 -9 3 -19 2 -22 -3 -9 -14 27 -20 68 -11 39 9 60 21
38 21 -7 0 -9 5 -5 13 6 9 5 9 -7 0 -8 -7 -25 -10 -37 -6 -23 6 -31 23 -10 23
6 0 8 3 4 7 -10 10 -46 11 -52 1z"/>
    <path d="M4590 3821 c-97 -22 -190 -94 -237 -184 -24 -45 -27 -64 -27 -142 -1
-112 23 -173 95 -240 69 -64 140 -95 222 -96 79 -1 125 13 195 59 105 69 165
207 142 326 -23 117 -90 204 -194 252 -57 26 -142 37 -196 25z"/>
    <path d="M3491 3644 c-12 -15 -21 -30 -21 -35 0 -4 -3 -14 -6 -23 -4 -10 31
-53 105 -130 100 -103 111 -118 111 -151 0 -72 -85 -112 -141 -66 -20 16 -25
31 -29 93 -5 73 -5 73 -57 76 -53 3 -53 3 -53 -65 0 -80 22 -136 69 -176 61
-51 143 -57 223 -17 37 19 38 19 72 -1 18 -11 56 -22 84 -26 64 -7 129 22 165
75 22 32 26 49 28 122 2 85 2 85 -47 85 -49 0 -49 0 -54 -65 -6 -76 -21 -107
-55 -116 -63 -16 -105 18 -105 84 0 47 2 49 100 147 80 79 100 105 100 128 0
30 -16 67 -34 79 -6 4 -106 8 -223 8 -212 0 -212 0 -232 -26z"/>
    <path d="M4945 3036 c-111 -35 -200 -112 -255 -220 -26 -52 -34 -82 -38 -140
-5 -89 5 -169 20 -160 7 4 8 2 4 -5 -10 -16 3 -53 16 -45 7 4 8 2 4 -4 -13
-21 68 -137 87 -125 6 3 7 1 3 -5 -10 -17 89 -78 158 -98 83 -23 193 -16 268
18 72 33 153 105 138 123 -8 9 -7 14 2 18 10 3 10 9 1 25 -6 11 -9 30 -6 42 4
16 3 21 -5 16 -8 -5 -11 1 -10 18 1 15 6 26 10 26 4 0 8 5 8 10 0 19 -21 10
-29 -12 -9 -26 -19 -13 -25 33 -2 19 -8 53 -11 76 -5 28 -3 48 4 57 9 11 10
20 1 36 -7 13 -10 59 -9 115 2 52 0 97 -4 101 -4 4 -7 16 -7 27 0 19 1 19 20
-3 13 -15 17 -27 11 -33 -14 -14 6 -48 24 -41 8 4 15 1 15 -5 0 -6 5 -11 11
-11 5 0 8 4 5 9 -4 5 -1 11 5 13 17 6 -35 62 -91 98 -88 56 -229 76 -325 46z
m393 -674 c10 7 6 0 -8 -16 -35 -39 -58 -50 -75 -36 -8 7 -19 9 -24 5 -7 -3
-8 0 -5 9 4 9 18 16 34 16 15 0 34 7 41 16 9 11 15 12 17 5 3 -9 8 -8 20 1z
m-178 -118 c-25 -7 -67 -13 -95 -13 -50 1 -50 1 9 10 32 5 61 11 64 14 3 3 19
5 36 4 29 0 27 -1 -14 -15z"/>
    <path d="M5320 2777 c0 -7 5 -18 11 -24 8 -8 8 -17 0 -32 -9 -17 -9 -21 2 -21
9 0 14 15 16 45 1 35 -2 45 -14 45 -8 0 -15 -6 -15 -13z"/>
    <path d="M3230 486 c0 -9 196 -45 301 -55 128 -12 403 -13 489 -2 30 4 -33 5
-140 3 -207 -5 -359 6 -539 39 -117 21 -111 20 -111 15z"/>
  </g>
  </g>
</svg>