<?xml version="1.0" encoding="UTF-8"?>
<svg xmlns="http://www.w3.org/2000/svg" version="1.1"
     width="752" height="560" viewBox="0 0 7520 5600">
  <rect id="background" width="100%" height="100%" fill="white"/>
  <g id="primary" fill="#5bb5e8">
    <path d="M3610 5443 c0 -8 -24 -155 -55 -348 -8 -49 -22 -133 -30 -185 -8 -52
-29 -180 -45 -285 -17 -104 -46 -293 -65 -420 -45 -294 -61 -385 -72 -395 -4
-4 -43 -20 -86 -36 -189 -66 -387 -213 -532 -394 -68 -85 -120 -180 -156 -286
-48 -140 -59 -232 -59 -474 0 -218 0 -218 -37 -245 -93 -69 -186 -177 -203
-235 -9 -32 -4 -63 9 -56 4 3 25 1 46 -4 58 -13 278 -14 370 -1 44 5 101 13
126 15 25 3 58 10 74 16 30 12 60 6 51 -9 -22 -35 -580 -83 -610 -54 -9 9 -66
11 -66 3 0 -3 11 -22 25 -42 42 -62 131 -104 244 -116 60 -7 65 -9 74 -37 5
-16 22 -67 39 -113 29 -81 29 -84 13 -124 -14 -35 -69 -319 -89 -453 -3 -22
-17 -116 -32 -208 -14 -92 -23 -175 -20 -183 6 -15 87 41 354 243 68 52 127
93 131 91 4 -2 32 -32 62 -68 107 -126 231 -235 270 -238 32 -2 277 -111 333
-149 35 -23 43 -24 71 -14 44 16 82 14 116 -6 27 -16 31 -16 57 -1 37 22 224
89 311 112 82 21 91 15 91 -56 0 -61 0 -61 63 -54 83 10 189 37 330 86 118 41
118 41 230 5 62 -20 120 -38 130 -40 10 -2 58 -17 105 -34 120 -40 290 -94
397 -127 50 -14 102 -33 118 -40 43 -23 35 -2 -49 131 -42 66 -106 167 -141
225 -36 58 -75 121 -88 140 -12 19 -71 112 -130 205 -108 170 -108 170 -106
235 2 63 -10 182 -29 285 -12 65 -55 373 -75 540 -56 464 -67 535 -107 669
-139 470 -535 830 -1011 916 -77 14 -69 0 -92 165 -40 290 -128 925 -145 1045
-10 74 -26 189 -35 255 -21 153 -21 155 -51 155 -13 0 -24 -3 -24 -7z m-869
-2378 c26 -10 59 -79 59 -122 0 -38 -8 -72 -32 -136 -21 -55 -112 -76 -155
-35 -13 12 -23 29 -23 39 0 10 -4 20 -9 23 -16 10 -23 79 -13 124 10 42 52
102 81 114 17 7 66 3 92 -7z m1021 -42 c75 -44 115 -176 72 -241 -51 -78 -126
-118 -200 -107 -46 6 -134 59 -134 79 0 7 -7 27 -16 45 -25 49 -8 148 30 173
6 4 7 8 3 8 -18 0 51 49 83 59 47 14 124 6 162 -16z m-629 -99 c59 -6 59 -6
52 -42 -16 -86 -89 -182 -139 -182 -31 0 -75 36 -91 74 -17 40 -29 141 -20
156 7 12 24 11 198 -6z m257 -594 c-8 -6 -28 -10 -44 -10 -16 0 -35 -8 -42
-17 -11 -15 -13 -16 -14 -2 0 25 17 35 67 36 32 1 43 -1 33 -7z m-230 -149 c0
-11 -40 -28 -127 -56 -40 -13 -73 -19 -73 -15 0 8 30 24 42 22 4 -1 32 11 62
26 56 28 96 37 96 23z"/>
  </g>
  <g id="accent" fill="#e84393">
    <path d="M3581 5315 c-7 -49 -15 -103 -18 -120 -3 -16 -3 -28 0 -25 9 8 39
199 35 219 -2 9 -10 -24 -17 -74z"/>
    <path d="M3417 4285 c-4 -8 -9 -46 -11 -83 -5 -67 -5 -67 8 13 13 79 14 100 3
70z"/>
    <path d="M3381 4045 c-8 -48 -11 -88 -8 -91 3 -3 10 34 17 81 7 47 10 88 8 91
-3 2 -10 -34 -17 -81z"/>
    <path d="M3876 3925 c8 -70 13 -85 30 -85 13 0 13 2 0 16 -9 8 -16 27 -17 42
-1 15 -5 38 -9 52 -6 17 -7 9 -4 -25z"/>
    <path d="M3985 3826 c130 -29 123 -28 84 -12 -19 7 -60 16 -90 19 -54 6 -54 6
6 -7z"/>
    <path d="M3030 3673 c-8 -3 -45 -30 -82 -59 -37 -30 -72 -54 -77 -54 -6 0 -11
-6 -11 -14 0 -8 -13 -24 -29 -35 -49 -35 -161 -178 -206 -265 -42 -78 -86
-192 -84 -218 0 -7 13 24 29 70 52 152 137 279 271 409 58 56 147 129 195 160
20 13 18 15 -6 6z"/>
    <path d="M4380 3677 c0 -2 30 -24 68 -49 37 -25 93 -69 125 -97 31 -29 57 -48
57 -43 0 6 -6 15 -14 19 -8 4 -32 24 -53 44 -45 42 -183 137 -183 126z"/>
    <path d="M4651 3465 c8 -11 33 -42 56 -69 24 -26 64 -81 90 -121 27 -39 54
-80 61 -91 7 -10 3 1 -9 25 -23 49 -108 164 -170 231 -23 25 -35 36 -28 25z"/>
    <path d="M2935 2929 c-9 -14 4 -117 20 -155 16 -38 60 -74 91 -74 50 0 123 96
139 183 6 31 4 37 -10 37 -14 0 -15 -3 -6 -14 16 -19 -22 -114 -64 -160 -71
-78 -145 -22 -160 121 -6 62 -6 62 32 66 38 4 38 4 1 5 -20 1 -40 -3 -43 -9z"/>
    <path d="M2502 2628 c-2 -216 -2 -216 -64 -270 -76 -64 -84 -73 -126 -126 -35
-44 -67 -110 -58 -120 3 -2 8 4 11 14 21 67 121 186 213 255 33 24 33 24 30
244 l-3 220 -3 -217z"/>
    <path d="M2288 2003 c23 -42 120 -103 162 -102 8 0 -9 9 -39 21 -29 11 -71 38
-93 60 -22 22 -35 31 -30 21z"/>
    <path d="M2553 1883 c41 -5 40 -3 78 -111 12 -34 23 -61 25 -59 2 2 -9 41 -25
88 -29 84 -29 84 -72 85 -41 1 -41 1 -6 -3z"/>
    <path d="M3330 764 c2 -163 19 -324 40 -382 31 -86 43 -95 105 -78 62 16 103
37 183 92 61 43 64 43 105 32 30 -7 52 -8 72 -1 28 9 34 6 100 -54 77 -72 195
-143 238 -143 82 0 143 197 146 479 1 33 -2 42 -13 38 -8 -3 -16 -2 -18 3 -3
9 -81 -9 -168 -40 -148 -52 -177 -63 -202 -78 -26 -15 -30 -15 -57 1 -34 20
-72 22 -116 6 -28 -10 -36 -9 -71 14 -50 33 -305 149 -312 142 -3 -2 -11 0
-19 6 -11 9 -13 2 -13 -37z"/>
  </g>
</svg>