<?xml version="1.0" encoding="UTF-8"?>
<svg xmlns="http://www.w3.org/2000/svg" version="1.1"
     width="752" height="560" viewBox="0 0 7520 5600">
  <rect id="background" width="100%" height="100%" fill="white"/>
  <g id="primary" fill="#c4a87a">
    <path d="M3480 4600 c-477 -90 -857 -338 -1109 -724 -92 -141 -188 -367 -207
-487 -7 -39 -7 -39 35 -39 22 0 41 3 41 8 0 12 211 2 276 -14 34 -8 93 -25
133 -39 253 -86 486 -330 559 -585 12 -42 32 -149 32 -173 0 -27 -24 -20 -58
18 -18 19 -62 49 -98 66 -59 28 -76 32 -157 33 -53 1 -113 -5 -142 -13 -62
-18 -158 -70 -195 -104 -27 -26 -27 -26 -39 -4 -6 12 -9 14 -7 5 3 -11 0 -15
-8 -12 -8 3 -16 18 -19 33 -4 16 -16 32 -31 39 -14 6 -26 16 -26 21 0 11 -70
54 -77 47 -3 -3 -17 0 -31 5 -20 8 -42 5 -92 -11 -97 -32 -127 -63 -150 -158
-30 -129 57 -256 190 -277 69 -10 82 -15 76 -31 -3 -8 -1 -14 4 -14 6 0 10 3
10 8 0 4 13 16 29 27 16 10 27 23 25 27 -3 4 6 8 20 8 19 0 35 14 65 57 39 53
41 59 36 112 -4 53 -3 58 28 86 49 47 105 86 128 90 12 2 33 12 46 20 37 25
224 22 268 -4 6 -3 17 -6 25 -8 8 -1 16 -7 18 -12 2 -6 10 -11 17 -11 8 0 39
-25 69 -56 31 -30 59 -53 63 -51 5 3 5 -49 1 -116 -4 -73 -11 -123 -17 -125
-6 -2 -9 -7 -6 -12 8 -13 -31 -116 -76 -199 -117 -220 -323 -384 -569 -451
-72 -20 -108 -23 -240 -23 -85 0 -166 5 -180 10 -25 11 -25 11 -22 -242 l3
-253 97 -81 c324 -270 706 -446 1142 -525 302 -55 705 -45 1001 24 362 84 729
262 956 463 86 75 258 254 306 317 23 30 49 62 57 71 28 32 37 45 103 140 73
106 167 267 167 286 0 10 -9 9 -35 -4 -19 -9 -35 -20 -35 -25 0 -4 -4 -8 -9
-8 -5 0 -92 -52 -194 -115 -102 -63 -189 -115 -194 -115 -4 0 -30 37 -57 82
-48 83 -48 83 -42 663 8 766 -3 961 -65 1180 -153 536 -547 944 -1079 1119
-228 74 -541 98 -760 56z m-430 -3081 c-14 -11 -44 -38 -67 -60 -24 -21 -43
-35 -43 -30 0 10 118 111 128 111 4 -1 -4 -10 -18 -21z"/>
  </g>
  <g id="accent" fill="#e84393">
    <path d="M3668 4623 c46 -2 118 -2 160 0 42 1 5 3 -83 3 -88 0 -123 -2 -77 -3z"/>
    <path d="M2975 4439 c-44 -23 -87 -48 -95 -55 -12 -12 172 79 189 93 18 14
-27 -4 -94 -38z"/>
    <path d="M4810 4228 c14 -13 57 -53 95 -88 l70 -64 -65 68 c-36 37 -78 77 -95
88 -30 21 -30 21 -5 -4z"/>
    <path d="M2580 4145 c-114 -115 -115 -120 -2 -10 51 49 92 91 92 92 0 8 -13
-4 -90 -82z"/>
    <path d="M5036 3989 c33 -38 118 -169 148 -226 14 -29 29 -53 31 -53 8 0 -44
100 -76 147 -16 23 -29 44 -29 48 0 3 -9 15 -20 27 -11 12 -20 27 -20 32 0 6
-13 20 -28 30 -27 19 -27 19 -6 -5z"/>
    <path d="M2156 3405 c-7 -27 -28 -39 -126 -70 -308 -100 -539 -350 -620 -670
-41 -165 -16 -440 49 -545 6 -8 20 -37 33 -65 39 -87 118 -192 193 -260 41
-36 79 -64 86 -63 7 2 13 -4 14 -12 0 -8 8 -14 17 -14 10 1 16 -3 15 -10 -1
-6 6 -10 15 -10 10 1 16 -2 13 -6 -7 -12 65 -52 82 -46 8 3 12 2 9 -3 -8 -12
50 -35 69 -27 9 3 13 2 10 -4 -3 -5 16 -15 42 -23 48 -14 48 -14 53 -248 l6
-234 -1 241 c0 242 0 242 25 231 14 -5 95 -10 180 -10 132 0 168 3 240 23 246
67 452 231 569 451 45 83 84 186 76 199 -3 5 0 10 6 12 6 2 13 52 17 125 4 67
4 119 -1 116 -4 -2 -32 21 -63 51 -30 31 -61 56 -69 56 -7 0 -15 5 -17 11 -2
5 -10 11 -18 12 -8 2 -19 5 -25 8 -44 26 -231 29 -268 4 -13 -8 -34 -18 -46
-20 -23 -4 -79 -43 -128 -90 -31 -28 -32 -33 -28 -86 5 -53 3 -59 -36 -112
-30 -43 -46 -57 -65 -57 -14 0 -23 -4 -20 -8 2 -4 -9 -17 -25 -27 -16 -11 -29
-23 -29 -27 0 -5 -4 -8 -10 -8 -5 0 -7 6 -4 14 6 16 -7 21 -76 31 -133 21
-220 148 -190 277 23 95 53 126 150 158 50 16 72 19 92 11 14 -5 28 -8 31 -5
7 7 77 -36 77 -47 0 -5 12 -15 26 -21 15 -7 27 -23 31 -39 3 -15 11 -30 19
-33 8 -3 11 1 8 12 -2 9 1 7 7 -5 12 -22 12 -22 39 4 37 34 133 86 195 104 29
8 89 14 142 13 81 -1 98 -5 157 -33 36 -17 80 -47 98 -66 34 -38 58 -45 58
-18 0 24 -20 131 -32 173 -48 170 -175 348 -328 461 -107 78 -217 128 -364
163 -65 16 -276 26 -276 14 0 -5 -19 -8 -41 -8 -42 0 -42 0 -35 40 7 44 2 54
-8 15z"/>
    <path d="M5378 3050 c3 -85 6 -157 8 -159 7 -8 2 213 -5 264 -4 28 -6 -19 -3
-105z"/>
    <path d="M5382 2033 c-2 -371 -2 -371 44 -450 25 -43 48 -80 49 -81 6 -7 40 9
65 29 22 19 21 18 -14 -2 -45 -26 -39 -30 -101 75 -30 51 -30 51 -35 426 l-5
375 -3 -372z"/>
    <path d="M3001 1489 c-34 -28 -61 -55 -61 -60 0 -5 19 9 43 30 23 22 53 49 67
60 14 11 22 20 18 21 -3 0 -34 -23 -67 -51z"/>
    <path d="M2160 1033 c0 -4 37 -38 83 -74 93 -74 147 -113 147 -105 0 3 -21 19
-47 37 -25 18 -77 59 -115 91 -37 32 -68 55 -68 51z"/>
    <path d="M5151 829 c-47 -32 -81 -59 -76 -59 14 0 153 94 159 108 3 6 4 12 3
11 -1 -1 -40 -28 -86 -60z"/>
    <path d="M2665 687 c25 -17 182 -87 192 -87 9 1 -196 100 -206 100 -3 0 3 -6
14 -13z"/>
    <path d="M4758 618 c-54 -23 -96 -44 -94 -46 5 -4 177 67 191 80 14 13 7 10
-97 -34z"/>
    <path d="M3560 429 c55 -7 414 -11 395 -4 -5 2 -109 5 -230 7 -121 2 -195 1
-165 -3z"/>
  </g>
</svg>