<?xml version="1.0" encoding="UTF-8"?>
<svg xmlns="http://www.w3.org/2000/svg" version="1.1"
     width="752" height="560" viewBox="0 0 7520 5600">
  
  <!-- VARIABLE: Background — change fill to customize -->
  <rect id="background" width="100%" height="100%" fill="white"/>
  <g transform="translate(0,5600) scale(1,-1)">
  
  <!-- VARIABLE: Skin/body color — change fill to customize -->
  <g id="skin" fill="#5bb5e8">
    <path d="M3606 5403 c-4 -27 -20 -130 -37 -231 -16 -100 -27 -187 -24 -193 9
-14 -5 -130 -15 -124 -10 6 -16 -13 -24 -70 -3 -22 -15 -98 -26 -170 -31 -198
-31 -203 -20 -180 8 16 9 13 5 -14 -3 -18 -6 -41 -6 -50 -1 -9 -5 -2 -10 14
-6 21 -7 13 -3 -27 4 -42 2 -62 -8 -72 -16 -15 -63 -313 -61 -386 1 -35 -1
-40 -8 -25 -6 14 -8 5 -4 -30 3 -35 2 -44 -4 -30 -7 14 -10 15 -10 5 -1 -9
-24 -22 -59 -34 -139 -45 -307 -147 -431 -262 -146 -135 -238 -273 -291 -435
-49 -148 -60 -237 -60 -478 -1 -216 -1 -216 -55 -254 -85 -58 -178 -177 -186
-236 -4 -22 1 -26 36 -35 22 -5 110 -10 195 -10 233 -1 438 37 626 115 77 32
168 103 160 125 -7 19 14 31 72 37 46 5 53 4 50 -11 -2 -10 -18 -19 -45 -25
-32 -6 -46 -15 -61 -41 -52 -88 -250 -172 -508 -216 -101 -17 -156 -20 -322
-18 -200 3 -200 3 -181 -24 48 -67 136 -111 250 -125 61 -8 61 -8 97 -103 19
-52 36 -112 36 -132 0 -24 3 -33 9 -25 5 8 7 5 4 -8 -2 -11 -10 -19 -17 -17
-10 2 -8 -3 5 -18 15 -17 17 -23 6 -29 -8 -5 -11 -13 -8 -18 3 -5 0 -21 -7
-35 -19 -35 -36 -138 -23 -138 5 0 4 -6 -2 -14 -6 -8 -13 -28 -14 -45 -1 -17
-4 -31 -7 -31 -3 0 -12 -39 -19 -87 -7 -49 -21 -143 -32 -210 -19 -126 -23
-173 -13 -173 3 0 22 11 42 25 40 27 57 32 46 13 -5 -9 -2 -9 9 1 20 16 23 25
5 15 -7 -4 -4 2 6 14 23 26 45 30 25 4 -13 -15 -12 -16 3 -3 10 7 16 16 14 20
-6 9 14 32 56 64 38 28 64 36 52 15 -4 -8 -3 -10 2 -5 5 5 9 12 10 15 3 21 18
42 30 42 8 0 14 5 14 10 0 6 14 19 32 30 18 11 33 29 35 42 2 17 1 19 -6 8 -5
-8 -7 -19 -4 -25 3 -5 -2 -2 -12 7 -16 15 -16 19 -4 34 9 11 9 15 2 10 -9 -5
-11 -2 -7 7 7 18 39 15 39 -3 0 -7 7 -15 15 -17 12 -4 12 -3 1 5 -8 6 -9 12
-3 16 6 3 13 -3 17 -14 4 -11 10 -18 14 -16 4 3 27 -19 51 -47 24 -29 93 -101
153 -160 96 -95 114 -108 137 -103 16 3 38 -2 56 -13 16 -9 49 -25 74 -35 25
-10 96 -43 158 -74 96 -48 116 -54 133 -44 27 17 64 15 108 -7 22 -12 42 -16
47 -11 9 9 136 61 213 87 88 30 186 52 195 43 4 -4 10 -32 11 -62 3 -53 3 -53
84 -51 68 2 108 11 248 58 115 38 177 54 198 50 24 -4 26 -3 10 4 -13 6 -15
10 -5 10 8 0 29 -6 45 -14 26 -13 26 -14 5 -9 -20 4 -22 3 -10 -5 8 -6 28 -8
44 -5 16 4 43 0 65 -9 20 -9 56 -22 81 -29 28 -8 44 -19 42 -27 -2 -10 4 -12
23 -7 19 5 25 3 20 -5 -5 -7 -1 -9 12 -5 24 8 55 -2 47 -15 -3 -5 0 -9 5 -9 6
0 11 4 11 9 0 10 74 -10 87 -23 5 -5 0 -6 -10 -3 -11 4 -31 9 -45 12 -20 4
-17 1 8 -8 56 -22 88 -30 70 -18 -20 14 -1 14 38 0 18 -6 30 -15 26 -20 -3 -5
8 -6 23 -3 17 3 45 -2 73 -15 37 -17 40 -20 15 -16 -29 5 -29 5 5 -9 19 -8 42
-15 50 -15 9 0 8 4 -5 9 -18 8 -18 9 5 9 14 0 31 -3 39 -8 8 -5 20 -7 27 -4
13 5 -4 43 -42 98 -17 24 -18 39 -2 29 7 -4 8 -3 4 5 -4 6 -11 9 -16 6 -11 -7
-33 32 -26 44 3 4 -1 17 -10 27 -14 18 -14 17 -4 -6 11 -24 10 -24 -15 4 -16
17 -25 36 -22 47 3 11 1 17 -3 14 -5 -3 -14 3 -19 14 -16 29 -13 38 5 15 14
-18 15 -18 4 3 -6 13 -16 22 -22 20 -14 -3 -80 104 -73 120 2 7 -1 15 -7 19
-7 5 -8 2 -3 -7 6 -11 5 -12 -5 -2 -7 7 -14 23 -15 35 -1 13 -7 22 -13 21 -6
-2 -25 17 -42 41 -31 45 -39 73 -18 60 7 -4 8 -3 4 5 -4 6 -11 9 -16 6 -11 -7
-33 32 -25 45 3 5 0 12 -6 16 -8 4 -9 3 -5 -4 4 -7 5 -12 2 -12 -3 0 -10 10
-17 21 -8 16 -8 20 1 14 7 -4 5 6 -4 24 -9 17 -19 31 -22 31 -2 0 0 -9 6 -20
6 -11 7 -20 2 -20 -4 0 -16 17 -26 37 -17 35 -17 36 1 22 16 -13 17 -13 4 4
-7 9 -19 17 -26 17 -18 0 -24 29 -12 60 11 31 2 135 -29 349 -32 217 -58 406
-84 621 -42 340 -61 455 -96 570 -107 346 -345 630 -663 790 -114 57 -200 88
-310 111 -53 11 -98 23 -102 27 -7 8 -39 219 -40 267 -1 30 -1 30 -8 2 -6 -28
-6 -28 -16 5 -6 18 -7 47 -4 63 7 30 7 30 9 -5 1 -19 4 -28 6 -20 2 8 -9 105
-25 215 -16 110 -30 189 -31 175 -2 -19 -4 -16 -12 15 -5 22 -7 60 -5 85 3 25
-6 115 -18 200 -13 85 -24 146 -25 135 -1 -19 -2 -19 -10 2 -16 40 -23 106
-10 98 13 -8 12 3 -16 205 -22 158 -22 160 -49 160 -20 0 -24 -6 -29 -47z
m-844 -2338 c93 -93 42 -306 -77 -322 -34 -4 -46 -1 -71 20 -85 72 -65 278 31
318 41 16 91 10 117 -16z m963 -16 c50 -14 119 -82 133 -130 21 -77 -20 -182
-86 -221 -111 -66 -248 -23 -296 94 -40 94 1 195 96 242 57 28 92 32 153 15z
m-566 -126 c33 -6 33 -6 27 -47 -9 -53 -63 -144 -98 -162 -82 -42 -144 21
-155 158 -6 71 -6 71 93 64 54 -4 114 -10 133 -13z"/>
  </g>
  
  <!-- FIXED: Details, eyes, accessories — do not change -->
  <g id="details" fill="#1a3a5c">
    <path d="M3607 5453 c-5 -7 -9 -31 -38 -193 -9 -54 -21 -130 -36 -240 -4 -30
-8 -76 -7 -102 1 -26 -3 -45 -7 -42 -10 6 -21 -39 -34 -141 -3 -22 -14 -94
-25 -160 -13 -75 -16 -121 -10 -123 6 -2 10 -11 10 -20 0 -15 -2 -15 -11 -2
-8 12 -9 10 -5 -10 3 -14 6 -34 7 -45 1 -11 5 -4 10 15 4 19 6 49 3 65 -3 17
4 89 15 160 12 72 24 148 27 170 8 57 14 76 24 70 10 -6 24 110 15 124 -3 6 8
93 24 193 17 101 33 204 37 231 5 41 9 47 29 47 13 0 25 -6 28 -12 2 -8 3 -7
3 2 -1 16 -51 27 -59 13z"/>
    <path d="M3681 5329 c-1 -14 3 -50 8 -80 19 -111 23 -172 11 -164 -12 8 -6
-59 10 -98 8 -21 9 -21 10 -2 0 17 2 17 10 5 10 -15 5 65 -6 99 -3 8 -7 40
-11 70 -8 82 -31 200 -32 170z"/>
    <path d="M3731 4965 c-1 -5 8 -71 19 -145 10 -75 17 -146 13 -158 -3 -12 -2
-48 2 -79 7 -48 9 -54 16 -33 4 14 7 32 8 40 1 13 0 13 -9 0 -6 -10 -8 8 -6
55 2 39 -2 111 -10 160 -14 93 -31 177 -33 160z"/>
    <path d="M3790 4532 c0 -6 9 -74 21 -152 14 -100 18 -154 12 -183 -6 -27 -5
-54 3 -76 11 -34 11 -34 17 5 9 55 7 87 -4 49 -5 -21 -6 -12 -3 30 4 56 -28
320 -40 333 -3 3 -6 0 -6 -6z"/>
    <path d="M3435 4337 c4 -25 3 -37 -4 -33 -15 9 -21 -23 -61 -309 -12 -82 -25
-157 -29 -165 -5 -8 -40 -27 -78 -41 -120 -44 -262 -126 -370 -214 -44 -36
-129 -124 -165 -172 -107 -141 -140 -203 -179 -333 -42 -144 -49 -206 -49
-436 0 -222 0 -222 -69 -277 -99 -81 -216 -247 -172 -247 6 0 11 8 11 18 0 44
109 179 189 233 50 34 50 34 51 250 0 241 11 330 60 478 53 162 145 300 291
435 124 115 292 217 431 262 35 12 58 25 59 34 0 10 3 9 10 -5 6 -14 7 -5 4
30 -4 35 -2 44 4 30 7 -15 9 -10 8 25 -1 70 45 371 60 385 16 16 17 54 2 75
-8 11 -9 5 -4 -23z"/>
    <path d="M3851 4110 c-2 -33 30 -253 38 -262 4 -4 49 -16 102 -27 228 -47 446
-164 626 -335 219 -208 355 -486 402 -821 11 -77 29 -219 41 -315 26 -215 52
-404 84 -621 31 -214 40 -318 29 -349 -12 -32 -6 -60 13 -60 8 0 13 -3 12 -7
-2 -5 3 -23 11 -41 9 -22 19 -31 29 -27 9 3 12 0 9 -9 -3 -7 0 -22 7 -32 7
-11 25 -41 40 -69 15 -27 40 -66 55 -85 15 -19 47 -68 71 -109 57 -99 90 -146
100 -144 4 1 6 -6 3 -16 -2 -10 6 -31 19 -47 23 -27 69 -100 109 -171 21 -36
10 -46 -32 -29 -19 7 -34 6 -51 -2 -22 -11 -22 -11 6 -5 18 4 27 2 23 -4 -8
-13 30 -33 70 -36 18 -1 33 -5 33 -9 0 -5 7 -8 15 -8 8 0 15 5 15 10 0 6 -5
10 -11 10 -5 0 -7 4 -4 10 3 5 -7 22 -22 37 -15 14 -21 22 -13 18 21 -12 -15
44 -44 68 -11 10 -15 16 -8 12 18 -10 16 -4 -35 76 -27 41 -53 83 -60 94 -6
11 -16 19 -23 17 -6 -1 -10 3 -9 10 3 27 -2 37 -33 69 -18 18 -27 29 -19 24
15 -9 -8 34 -61 112 -15 23 -28 46 -28 52 0 6 -5 11 -11 11 -5 0 -7 -5 -3 -12
5 -7 3 -8 -5 -4 -7 5 -10 14 -7 22 3 8 0 17 -8 20 -7 3 -13 10 -13 17 0 23
-65 117 -76 110 -6 -4 -8 0 -4 10 4 10 0 20 -11 26 -9 6 -14 11 -9 11 4 0 0
12 -9 26 -13 19 -18 50 -19 127 -1 99 -10 183 -39 357 -13 77 -48 334 -76 560
-39 309 -63 454 -95 555 -40 128 -108 273 -171 363 -24 34 -44 66 -44 70 0 18
-243 240 -310 284 -155 101 -301 161 -473 195 -64 13 -78 19 -82 37 -2 11 -12
68 -20 126 -20 131 -22 141 -24 110z"/>
    <path d="M2645 3081 c-96 -40 -116 -246 -31 -318 42 -36 99 -28 143 20 93 102
55 308 -56 306 -20 0 -45 -4 -56 -8z"/>
    <path d="M3572 3034 c-95 -47 -136 -148 -96 -242 48 -117 185 -160 296 -94 66
39 107 144 86 221 -14 48 -83 116 -133 130 -61 17 -96 13 -153 -15z"/>
    <path d="M2933 2872 c11 -137 73 -200 155 -158 35 18 89 109 98 162 6 41 6 41
-27 47 -19 3 -79 9 -133 13 -99 7 -99 7 -93 -64z m185 42 c46 -5 52 -8 52 -28
0 -60 -84 -176 -128 -176 -24 0 -74 50 -84 82 -3 13 -6 49 -7 81 -1 58 -1 58
57 52 31 -3 81 -8 110 -11z"/>
    <path d="M3345 2353 c-45 -5 -66 -18 -59 -37 8 -22 -83 -93 -160 -125 -188
-78 -392 -116 -626 -115 -85 0 -174 5 -196 11 -40 10 -41 9 -41 -13 0 -13 3
-24 8 -24 5 0 8 -3 8 -7 -10 -64 93 -133 237 -158 41 -7 77 -15 79 -16 1 -2 8
-20 13 -39 6 -19 20 -60 32 -90 33 -83 33 -86 16 -122 -11 -22 -15 -46 -11
-73 3 -28 2 -34 -4 -20 -7 17 -10 14 -17 -20 -4 -22 -8 -68 -9 -102 0 -34 -4
-56 -8 -50 -5 7 -5 -8 -1 -32 4 -30 3 -41 -5 -37 -7 5 -9 -3 -4 -25 4 -23 3
-30 -6 -25 -8 6 -10 -4 -6 -36 4 -33 3 -38 -5 -23 -7 15 -9 6 -5 -35 3 -41 2
-49 -5 -30 -7 18 -8 11 -4 -28 3 -28 2 -52 -3 -52 -5 0 -7 -16 -5 -36 3 -24 1
-35 -6 -30 -7 4 -9 -6 -6 -31 4 -27 3 -34 -4 -24 -15 21 -26 -27 -19 -85 2
-24 1 -44 -4 -44 -5 0 -9 -7 -9 -15 0 -18 11 -19 45 -3 14 6 24 17 21 24 -3 7
3 18 12 26 15 12 16 11 3 -5 -8 -10 -9 -17 -3 -17 11 0 27 19 27 32 0 3 4 10
9 15 5 5 6 3 2 -4 -11 -20 8 -15 34 7 13 11 27 20 32 20 4 0 8 5 8 11 0 5 -6
7 -12 3 -9 -5 -9 -2 1 9 8 10 9 17 3 17 -6 0 -14 -5 -17 -10 -6 -10 -111 -80
-120 -80 -9 0 -5 50 14 173 11 67 25 161 32 210 7 48 16 87 19 87 3 0 6 14 7
31 1 17 8 37 14 45 6 8 7 14 2 14 -13 0 4 103 23 138 7 14 10 30 7 35 -3 5 0
13 8 18 11 6 9 12 -6 29 -14 16 -15 21 -5 18 24 -5 14 53 -26 161 -19 53 -37
101 -39 107 -2 6 -30 14 -63 17 -93 10 -170 43 -222 96 -45 46 -45 46 190 52
247 6 329 17 489 65 159 48 267 108 303 170 15 26 29 35 61 41 27 6 43 15 45
26 2 10 -2 16 -10 15 -7 -1 -31 -3 -53 -5z"/>
    <path d="M2906 1153 c-4 -9 -2 -12 7 -7 7 5 7 1 -2 -10 -12 -15 -12 -19 4 -34
10 -9 15 -12 12 -7 -3 6 -1 17 4 25 7 11 8 9 6 -8 -2 -13 -17 -31 -35 -42 -18
-11 -32 -24 -32 -30 0 -5 -6 -10 -14 -10 -12 0 -27 -21 -30 -42 -1 -3 -5 -10
-10 -15 -5 -5 -6 -3 -2 5 20 34 -76 -22 -99 -58 -14 -22 -15 -42 -2 -37 7 3
11 9 10 15 -1 5 5 16 15 24 15 12 16 11 3 -4 -23 -30 -3 -20 62 30 34 26 75
55 90 65 15 10 32 28 37 41 4 12 21 30 37 40 28 17 28 17 1 -6 -38 -32 -36
-45 2 -18 17 12 37 20 44 17 7 -3 31 -27 52 -53 71 -88 227 -234 249 -234 12
0 15 -18 16 -92 1 -157 6 -211 22 -275 25 -96 43 -132 69 -138 36 -9 132 30
225 92 72 48 84 53 104 43 14 -8 41 -10 71 -7 47 6 52 4 87 -31 134 -130 270
-194 313 -144 16 18 38 65 56 117 24 72 32 115 35 183 3 74 3 74 68 78 61 4
145 22 138 29 -2 1 -31 -1 -64 -6 -32 -6 -75 -9 -93 -7 -34 3 -35 3 -37 56 -2
30 -7 58 -11 62 -9 9 -107 -13 -195 -43 -77 -26 -204 -78 -213 -87 -5 -5 -25
-1 -47 11 -44 22 -81 24 -108 7 -17 -10 -37 -4 -133 44 -62 31 -133 64 -158
74 -25 10 -58 26 -74 35 -18 11 -40 16 -56 13 -23 -5 -41 8 -137 103 -60 59
-129 131 -153 160 -24 28 -47 50 -51 47 -4 -2 -10 5 -14 16 -4 11 -11 17 -17
14 -6 -4 -5 -10 3 -16 11 -8 11 -9 -1 -5 -8 2 -15 10 -15 17 0 18 -32 21 -39
3z"/>
    <path d="M4830 761 c-82 -21 -292 -96 -277 -99 10 -2 26 0 35 4 9 4 19 8 22 8
3 1 25 8 50 17 106 38 183 58 199 51 15 -8 25 -8 61 -3 9 2 2 8 -15 16 -33 15
-38 16 -75 6z"/>
    <path d="M4930 733 c-23 -10 79 -42 115 -36 20 3 26 2 17 -4 -9 -7 -2 -13 25
-21 43 -13 71 1 32 17 -93 37 -165 54 -189 44z"/>
    <path d="M5152 662 c-9 -6 0 -13 28 -21 22 -6 45 -9 51 -5 18 11 -18 26 -42
19 -15 -5 -19 -4 -15 4 8 13 -3 14 -22 3z"/>
    <path d="M5314 598 c9 -5 25 -6 36 -3 11 4 20 2 20 -4 0 -16 157 -64 175 -53
24 13 -67 46 -101 38 -16 -4 -23 -3 -20 3 8 13 -28 24 -83 26 -30 2 -38 -1
-27 -7z"/>
  </g>
  </g>
</svg>