<?xml version="1.0" encoding="UTF-8"?>
<svg xmlns="http://www.w3.org/2000/svg" version="1.1"
     width="752" height="560" viewBox="0 0 7520 5600">
  
  <!-- VARIABLE: Background — change fill to customize -->
  <rect id="background" width="100%" height="100%" fill="white"/>
  <g transform="translate(0,5600) scale(1,-1)">
  
  <!-- VARIABLE: Skin/body color — change fill to customize -->
  <g id="skin" fill="#c4a87a">
    <path d="M3604 4469 c-3 -5 -2 -9 3 -7 4 1 40 -4 80 -11 58 -10 83 -10 130 0
32 7 61 12 66 11 4 -1 7 3 7 9 0 8 -13 9 -42 3 -52 -10 -115 -11 -186 -2 -29
3 -55 2 -58 -3z"/>
    <path d="M2965 3357 c-183 -108 -275 -178 -387 -295 -241 -254 -377 -574 -395
-931 -6 -133 -6 -133 40 -98 41 31 107 63 147 71 8 2 24 7 34 11 24 10 183
-10 202 -26 8 -6 14 -9 14 -5 0 3 13 -2 28 -12 161 -98 233 -301 167 -464 -71
-176 -196 -255 -384 -246 -96 5 -145 24 -211 85 -40 35 -40 35 -40 -391 l0
-426 323 0 c219 0 326 3 334 11 8 8 13 8 17 0 5 -8 257 -10 869 -9 l862 3
-858 2 c-643 2 -856 6 -851 15 4 7 3 8 -4 4 -49 -30 63 91 132 142 15 12 32
19 37 16 5 -3 9 1 9 8 0 16 86 72 99 64 5 -4 13 0 18 8 9 16 113 68 181 90 26
8 99 24 162 35 145 25 330 21 447 -10 43 -11 88 -22 101 -25 78 -16 295 -121
285 -138 -3 -5 -1 -6 5 -2 15 9 55 -18 44 -29 -4 -5 -2 -5 5 -1 12 7 135 -87
192 -148 35 -36 35 -36 404 -36 323 0 368 2 363 15 -20 53 -56 191 -65 250 -7
45 -10 287 -9 680 2 540 0 622 -15 710 -37 211 -120 420 -241 605 -74 113
-222 269 -336 352 -88 65 -190 124 -190 110 0 -42 -441 -152 -612 -152 -57 0
-58 -1 -77 -38 -11 -21 -31 -43 -46 -50 -57 -26 -143 -6 -125 28 6 12 5 17 -5
17 -8 0 -12 -4 -9 -9 3 -4 2 -8 -1 -8 -3 0 -11 14 -16 30 -11 29 -13 30 -77
30 -127 1 -322 39 -468 92 -79 28 -85 33 -81 54 2 13 4 24 3 23 0 0 -10 -5
-21 -12z m645 -342 c6 -8 8 -20 4 -27 -6 -10 -4 -10 9 0 14 12 17 10 23 -14
19 -75 -7 -126 -71 -138 -84 -16 -148 64 -112 140 9 19 27 39 39 44 36 14 94
12 108 -5z m327 -13 c44 -37 51 -77 21 -121 -41 -61 -122 -63 -168 -3 -48 61
-2 152 77 152 27 0 48 -9 70 -28z m-956 -218 c66 -37 143 -121 163 -180 53
-155 -26 -330 -179 -400 -49 -23 -67 -26 -138 -22 -95 4 -155 29 -219 91 -91
88 -121 240 -70 352 25 55 91 128 137 152 97 52 218 54 306 7z m1746 6 c56
-24 137 -101 162 -154 64 -131 38 -267 -70 -375 -87 -86 -240 -111 -348 -57
-197 100 -247 344 -103 507 37 42 116 87 174 99 56 11 132 3 185 -20z m-790
-134 c13 -15 23 -38 23 -51 0 -26 -99 -147 -156 -190 -31 -24 -34 -30 -34 -80
0 -62 21 -85 75 -85 50 0 74 33 74 104 0 32 4 63 9 68 5 5 27 8 48 6 39 -3 39
-3 42 -76 3 -86 -17 -132 -75 -172 -46 -31 -139 -34 -192 -6 -32 17 -35 17
-81 -3 -58 -25 -98 -26 -148 -6 -73 31 -106 78 -117 166 -10 81 -2 99 43 99
56 0 63 -9 60 -74 -2 -55 0 -60 31 -88 27 -24 39 -29 65 -24 46 10 61 30 61
85 0 47 -2 51 -77 127 -128 132 -141 159 -95 201 30 29 47 31 247 28 174 -3
174 -3 197 -29z m1211 -610 c29 -15 71 -43 92 -63 40 -35 40 -35 40 -274 0
-239 0 -239 -43 -283 -47 -47 -113 -81 -190 -98 -34 -7 -52 -7 -59 0 -6 6 -24
8 -39 5 -46 -9 -139 32 -203 89 -34 30 -55 56 -52 64 3 8 0 13 -6 11 -16 -3
-53 77 -69 147 -17 78 -1 176 41 250 36 63 114 140 133 130 6 -4 9 -4 5 1 -9
9 32 34 77 46 17 4 73 7 125 5 80 -2 104 -7 148 -30z"/>
  </g>
  
  <!-- FIXED: Details, eyes, accessories — do not change -->
  <g id="details" fill="#5a3e28">
    <path d="M3663 5110 c-90 -21 -191 -103 -228 -185 -41 -90 -46 -166 -19 -261
18 -62 47 -104 115 -165 l51 -46 -61 -104 c-34 -57 -66 -111 -71 -119 -5 -8
-50 -89 -101 -180 -50 -91 -105 -187 -121 -215 -26 -42 -29 -54 -20 -81 13
-42 -9 -83 -48 -91 -37 -7 -36 -6 -105 -138 -32 -60 -61 -114 -65 -120 -4 -5
-8 -27 -8 -47 -1 -36 -1 -36 83 -67 145 -52 341 -90 467 -91 64 0 66 -1 77
-30 5 -16 13 -30 16 -30 3 0 4 4 1 8 -3 5 1 9 9 9 10 0 11 -5 5 -17 -18 -34
68 -54 125 -28 15 7 35 29 46 50 19 37 20 38 77 38 171 0 612 110 612 152 0
14 102 -45 190 -110 110 -81 262 -239 331 -345 34 -51 63 -94 65 -97 12 -11
-12 39 -35 75 -119 188 -362 412 -513 475 -15 7 -30 21 -34 33 -4 12 -22 49
-42 82 -19 33 -47 83 -62 110 -14 28 -39 69 -55 93 -28 43 -28 43 -52 20 -46
-43 -103 -31 -103 22 0 35 32 64 65 58 18 -4 25 -1 25 9 0 13 -156 306 -199
373 -16 26 -19 30 -68 120 -16 30 -46 83 -66 117 -42 70 -44 79 -19 87 33 11
115 101 139 153 20 44 24 68 24 145 0 110 -20 160 -94 237 -84 88 -219 129
-334 101z m97 -644 c25 0 64 4 88 8 29 6 42 5 42 -3 0 -6 -3 -10 -7 -9 -5 1
-34 -4 -66 -11 -47 -10 -72 -10 -130 0 -40 7 -76 12 -80 11 -5 -2 -6 2 -3 7 3
5 29 6 58 3 29 -4 73 -6 98 -6z m-181 -336 c4 0 13 -11 19 -25 10 -21 9 -30
-4 -50 -31 -48 -109 -22 -102 34 3 27 43 55 66 46 8 -3 17 -5 21 -5z m374
-261 c8 -11 14 -28 12 -37 -2 -9 -4 -20 -4 -24 -1 -3 -14 -11 -30 -16 -58 -20
-105 35 -65 79 23 25 69 25 87 -2z m-425 -145 c12 -8 22 -23 22 -32 0 -31 -29
-62 -59 -62 -27 0 -58 25 -56 45 3 31 19 54 38 58 12 2 24 5 27 6 3 0 16 -6
28 -15z m352 -212 c30 -25 21 -66 -19 -87 -28 -14 -31 -13 -59 10 -34 28 -33
56 1 80 28 20 50 19 77 -3z"/>
    <path d="M2945 3356 c-16 -7 -32 -13 -35 -13 -7 0 -156 -106 -205 -146 -109
-88 -255 -251 -305 -342 -12 -22 -30 -51 -40 -65 -24 -36 -95 -186 -114 -243
-33 -98 -66 -260 -65 -315 2 -57 2 -57 10 16 43 370 262 748 564 974 76 57
189 128 203 128 6 0 14 5 17 10 8 12 7 12 -30 -4z"/>
    <path d="M3502 3020 c-12 -5 -30 -25 -39 -44 -36 -76 28 -156 112 -140 64 12
90 63 71 138 -6 24 -9 26 -23 14 -13 -10 -15 -10 -9 0 20 34 -54 55 -112 32z"/>
    <path d="M3799 3001 c-35 -35 -39 -86 -9 -123 46 -60 127 -58 168 3 30 44 23
84 -21 121 -45 39 -98 38 -138 -1z"/>
    <path d="M2745 2807 c-63 -21 -97 -42 -142 -89 -121 -124 -119 -325 5 -445 64
-62 124 -87 219 -91 71 -4 89 -1 138 22 153 70 232 245 179 400 -20 59 -97
143 -163 180 -62 33 -172 44 -236 23z"/>
    <path d="M4542 2810 c-58 -12 -137 -57 -174 -99 -144 -163 -94 -407 103 -507
74 -37 182 -38 259 -2 94 44 159 122 185 224 27 107 -8 216 -96 299 -80 75
-178 105 -277 85z"/>
    <path d="M5140 2688 c40 -85 91 -230 114 -323 2 -11 4 -4 2 15 -3 53 -51 193
-106 308 -27 56 -52 102 -54 102 -3 0 17 -46 44 -102z"/>
    <path d="M3540 2683 c-35 -7 -70 -42 -70 -71 0 -29 19 -54 118 -156 75 -76 77
-80 77 -127 0 -55 -15 -75 -61 -85 -26 -5 -38 0 -65 24 -31 28 -33 33 -31 88
3 65 -4 74 -60 74 -45 0 -53 -18 -43 -99 11 -88 44 -135 117 -166 50 -20 90
-19 148 6 46 20 49 20 81 3 53 -28 146 -25 192 6 58 40 78 86 75 172 -3 73 -3
73 -42 76 -21 2 -43 -1 -48 -6 -5 -5 -9 -36 -9 -68 0 -71 -24 -104 -74 -104
-54 0 -75 23 -75 85 0 50 3 56 34 80 57 43 156 164 156 190 0 13 -10 36 -23
51 -23 26 -23 26 -197 29 -96 1 -186 0 -200 -2z"/>
    <path d="M5265 2300 c18 -122 23 -330 19 -810 -4 -363 -2 -546 6 -595 10 -59
47 -198 66 -250 5 -13 -40 -15 -363 -15 -369 0 -369 0 -404 36 -57 61 -180
155 -192 148 -7 -4 -9 -4 -5 1 11 11 -29 38 -44 29 -6 -4 -8 -3 -5 2 10 17
-207 122 -285 138 -13 3 -58 14 -101 25 -117 31 -302 35 -447 10 -63 -11 -136
-27 -162 -35 -68 -22 -172 -74 -181 -90 -5 -8 -13 -12 -18 -8 -13 8 -99 -48
-99 -64 0 -7 -4 -11 -9 -8 -5 3 -22 -4 -37 -16 -69 -51 -181 -172 -132 -142 7
4 8 3 4 -4 -5 -9 208 -13 851 -15 l858 -2 -860 -3 c-610 -1 -864 1 -872 9 -8
8 -13 8 -17 0 -5 -8 -109 -11 -332 -11 l-324 0 0 426 c0 426 0 426 40 391 66
-61 115 -80 211 -85 107 -5 181 14 253 67 61 45 96 94 131 179 66 163 -6 366
-167 464 -15 10 -28 15 -28 12 0 -4 -6 -1 -14 5 -19 16 -178 36 -202 26 -10
-4 -26 -9 -34 -11 -40 -8 -106 -40 -145 -70 -44 -33 -44 -33 -47 54 -2 48 -3
-262 -3 -688 l0 -775 1589 -3 c1002 -1 1593 1 1600 8 6 6 4 25 -6 52 -56 159
-58 186 -58 812 0 556 -9 801 -32 836 -6 10 -7 0 -3 -30z"/>
    <path d="M4875 2071 c-45 -12 -86 -37 -77 -46 4 -5 1 -5 -5 -1 -19 10 -97 -67
-133 -130 -42 -74 -58 -172 -41 -250 16 -70 53 -150 69 -147 6 2 9 -3 6 -11
-3 -8 18 -34 52 -64 64 -57 157 -98 203 -89 15 3 33 1 39 -5 7 -7 25 -7 59 0
77 17 143 51 190 98 43 44 43 44 43 283 0 239 0 239 -40 274 -73 67 -133 90
-240 93 -52 2 -108 -1 -125 -5z"/>
  </g>
  </g>
</svg>