<?xml version="1.0" encoding="UTF-8"?>
<svg xmlns="http://www.w3.org/2000/svg" version="1.1"
     width="752.000000pt" height="560.000000pt" viewBox="0 0 752.000000 560.000000">
  <rect id="background" width="100%" height="100%" fill="white"/>
  <g id="primary" fill="#5bb5e8">
    <path d="M3710 5568 c0 -18 -9 -96 -20 -173 -20 -137 -64 -518 -94 -805 -9
-80 -23 -206 -31 -280 -21 -178 -70 -608 -90 -790 -22 -202 -16 -186 -77 -200
-312 -66 -644 -285 -861 -567 -50 -65 -137 -207 -137 -223 0 -6 -9 -10 -19
-10 -11 0 -22 -4 -25 -8 -2 -4 11 -6 30 -4 21 3 34 0 34 -7 0 -7 4 -10 9 -6 5
3 12 1 16 -5 3 -5 -2 -10 -12 -11 -10 0 -3 -5 15 -10 17 -5 32 -13 32 -17 0
-4 12 -7 28 -8 15 0 34 -2 42 -5 11 -3 14 3 12 20 -3 33 -5 33 -37 21 -31 -12
-48 -4 -25 10 9 6 137 7 315 3 165 -4 317 -7 338 -7 20 -1 37 -4 37 -8 0 -4
10 -7 23 -6 28 2 97 -28 97 -41 0 -6 7 -11 15 -11 8 0 15 -4 15 -9 0 -20 68
-31 102 -17 9 4 25 3 37 -3 27 -15 44 -14 38 2 -6 16 41 20 243 19 257 -1 270
-2 290 -22 10 -10 27 -17 37 -15 10 2 26 4 36 4 9 1 27 13 40 27 25 29 77 54
113 54 12 0 29 6 36 13 13 14 259 23 516 19 62 -1 122 2 132 8 10 6 21 6 24 1
3 -4 16 -7 28 -5 13 2 45 6 71 9 48 6 48 6 12 73 -141 257 -388 493 -650 622
-99 48 -260 109 -332 125 -18 3 -33 10 -33 14 0 4 -14 115 -31 247 -16 131
-37 300 -44 374 -8 74 -19 169 -25 210 -5 41 -14 116 -20 165 -5 50 -25 218
-44 375 -19 157 -42 348 -50 425 -9 77 -26 213 -37 303 -22 162 -22 162 -70
162 -49 0 -49 0 -49 -32z"/>
    <path d="M2399 2475 c-1 -3 -2 -8 -3 -12 -1 -5 -5 -14 -9 -20 -5 -8 -4 -13 3
-13 6 0 8 -5 4 -11 -3 -6 -15 -9 -25 -6 -11 3 -19 4 -19 4 0 -1 -11 -35 -25
-76 -14 -40 -35 -124 -47 -185 -20 -106 -21 -144 -25 -841 -2 -401 -8 -760
-13 -797 -20 -133 -97 -333 -173 -444 -18 -27 -37 -55 -41 -61 -6 -10 320 -13
1613 -13 l1621 0 0 1018 c0 627 -4 1042 -10 1082 -20 128 -88 370 -90 320 0
-11 -2 -12 -8 -2 -6 9 -19 3 -50 -24 -23 -20 -40 -39 -37 -44 3 -4 -2 -11 -11
-14 -14 -5 -14 -9 -3 -23 11 -13 11 -17 1 -20 -6 -3 -10 -9 -6 -14 3 -5 1 -9
-4 -9 -5 0 -9 -20 -9 -44 -1 -24 -7 -54 -14 -67 -9 -18 -9 -24 0 -27 9 -3 9
-7 0 -18 -7 -8 -9 -17 -6 -21 4 -3 3 -11 -2 -17 -5 -6 -14 -27 -20 -47 -6 -20
-26 -49 -43 -65 -17 -16 -28 -23 -24 -16 13 23 -2 12 -43 -30 -23 -22 -41 -35
-41 -27 0 12 -2 12 -9 -1 -6 -8 -7 -18 -5 -22 3 -4 -1 -5 -9 -2 -8 3 -18 1
-22 -5 -3 -6 -19 -11 -34 -11 -15 0 -49 -6 -74 -14 -26 -8 -44 -10 -41 -5 3 5
-23 9 -58 9 -114 0 -184 31 -290 130 -41 37 -58 60 -55 72 3 10 2 16 -3 13
-11 -7 -21 22 -14 40 4 8 1 15 -5 15 -6 0 -11 5 -11 11 0 6 -9 23 -19 38 -16
22 -37 91 -34 111 0 3 -15 20 -35 38 -19 18 -31 25 -28 16 5 -13 3 -14 -6 -7
-19 15 -134 26 -288 27 -96 1 -137 5 -143 14 -12 18 -35 14 -42 -8 -7 -23 -45
-27 -45 -5 0 9 -6 12 -15 9 -8 -4 -13 -10 -10 -14 3 -4 -12 -9 -33 -9 -20 -1
-47 -2 -59 -2 -13 -1 -23 -4 -23 -8 0 -3 -9 -12 -21 -19 -17 -11 -20 -11 -14
0 3 7 0 5 -8 -4 -8 -10 -17 -16 -20 -13 -4 3 -5 2 -3 -1 2 -3 -7 -31 -20 -61
-14 -31 -22 -58 -19 -61 3 -3 -1 -15 -8 -26 -8 -12 -17 -34 -21 -49 -4 -16
-29 -51 -56 -79 -28 -28 -50 -58 -50 -67 0 -12 -2 -13 -8 -3 -7 10 -13 8 -26
-7 -10 -10 -31 -25 -47 -31 -16 -7 -26 -16 -24 -21 3 -4 -10 -11 -30 -15 -19
-3 -38 -10 -41 -15 -3 -5 -23 -9 -45 -9 -22 0 -39 -5 -39 -11 0 -7 -10 -9 -27
-4 -16 4 -57 9 -93 12 -47 3 -76 11 -106 31 -24 14 -40 31 -37 37 4 5 3 7 -2
3 -4 -4 -14 -3 -22 3 -7 6 -13 8 -13 3 0 -4 -11 3 -25 16 -13 12 -22 27 -18
33 3 6 1 7 -5 3 -9 -6 -33 23 -38 47 -1 4 -3 9 -4 12 -1 3 -3 11 -4 18 -1 6
-8 11 -15 9 -7 -1 -10 2 -6 7 3 6 19 8 35 4 20 -3 30 -1 30 6 0 7 -8 10 -17 7
-38 -12 -57 25 -37 66 9 17 10 29 4 33 -6 3 -10 -3 -10 -14 0 -12 -6 -21 -14
-21 -17 0 -30 61 -21 101 4 16 3 29 -2 29 -5 0 -17 24 -27 53 -11 28 -23 57
-29 62 -7 7 -7 5 -2 -4 6 -10 4 -12 -4 -7 -9 6 -9 11 -1 21 7 9 6 16 -5 25 -9
8 -13 21 -9 36 3 13 3 24 0 24 -3 0 -7 -2 -7 -5z m1583 -255 c-9 -159 -111
-300 -217 -300 -110 0 -206 124 -222 287 -5 54 -4 62 13 66 11 2 111 4 224 3
205 -1 205 -1 202 -56z"/>
    <path d="M4967 2473 c-11 -11 -8 -65 3 -58 6 3 10 15 10 26 0 14 7 19 25 19
14 0 25 5 25 10 0 11 -53 14 -63 3z"/>
    <path d="M2913 2453 c-75 -10 -19 -34 77 -33 30 0 62 0 70 0 100 0 135 6 138
24 4 17 0 18 -35 11 -37 -8 -111 -8 -183 -1 -19 2 -50 1 -67 -1z"/>
    <path d="M5020 2416 c0 -13 -6 -27 -12 -29 -7 -3 -4 -6 7 -6 11 0 29 7 40 15
20 15 20 15 1 30 -28 20 -36 18 -36 -10z"/>
  </g>
  <g id="accent" fill="#e84393">
    <path d="M4077 3395 c2 -33 6 -61 6 -62 1 -1 16 -4 32 -7 30 -6 30 -6 4 4 -22
9 -29 20 -37 68 -11 57 -11 57 -5 -3z"/>
    <path d="M3450 3398 c0 -42 -10 -57 -46 -68 -28 -10 -28 -10 6 -5 18 3 38 11
42 18 8 13 11 87 3 87 -3 0 -5 -15 -5 -32z"/>
    <path d="M4390 3228 c36 -16 90 -43 120 -60 30 -16 46 -22 35 -13 -24 20 -197
105 -210 104 -6 0 19 -14 55 -31z"/>
    <path d="M2931 3129 c-40 -27 -76 -49 -78 -49 -18 0 -247 -220 -285 -275 -12
-16 17 11 64 61 100 105 194 184 310 260 46 30 78 54 73 53 -6 0 -43 -22 -84
-50z"/>
    <path d="M4575 3133 c10 -9 50 -38 125 -92 35 -24 35 -24 10 0 -14 14 -45 39
-70 55 -53 36 -79 51 -65 37z"/>
    <path d="M4831 2924 c108 -112 204 -237 258 -336 20 -37 39 -68 43 -68 12 0
-112 205 -157 259 -69 82 -137 155 -185 197 -34 30 -18 10 41 -52z"/>
    <path d="M2471 2676 c-60 -93 -78 -126 -68 -126 3 0 20 26 37 58 18 31 50 81
71 110 22 28 35 52 30 52 -5 0 -36 -42 -70 -94z"/>
    <path d="M3573 2274 c3 -3 94 -5 203 -4 l197 1 -5 -72 c-3 -40 -2 -66 2 -58 5
8 10 41 12 74 3 60 3 60 -206 62 -114 1 -206 0 -203 -3z"/>
    <path d="M3945 2093 c-17 -76 -111 -162 -178 -163 -41 0 -85 18 -107 45 -7 9
-23 21 -34 27 -39 21 4 -22 53 -54 82 -51 163 -29 235 65 27 36 52 94 43 103
-3 3 -8 -7 -12 -23z"/>
    <path d="M5258 1215 c1 -501 3 -980 5 -1065 1 -85 3 311 4 880 0 569 -2 1048
-6 1065 -3 16 -5 -380 -3 -880z"/>
    <path d="M2232 542 c-10 -77 -34 -161 -86 -307 -5 -13 -2 -11 8 5 40 65 103
312 94 372 -2 13 -9 -19 -16 -70z"/>
    <path d="M2106 159 c-15 -28 -39 -68 -55 -88 -25 -32 -45 -71 -37 -71 12 0
131 198 123 206 -3 3 -17 -18 -31 -47z"/>
  </g>
</svg>