<?xml version="1.0" encoding="UTF-8"?>
<svg xmlns="http://www.w3.org/2000/svg" version="1.1"
     width="752" height="560" viewBox="0 0 7520 5600">
  <rect id="background" width="100%" height="100%" fill="white"/>
  <g id="primary" fill="#c4a87a">
    <path d="M2970 3360 c-166 -95 -276 -176 -383 -287 -187 -192 -318 -438 -376
-705 -34 -158 -41 -388 -34 -1090 l6 -648 1589 0 c1117 0 1588 3 1588 11 0 6
-4 18 -10 28 -5 10 -22 63 -37 117 -27 99 -27 99 -28 754 0 736 -1 745 -74
967 -94 288 -264 535 -486 708 -78 61 -243 165 -231 146 25 -39 -346 -139
-583 -157 -50 -4 -91 -10 -91 -14 0 -14 -163 -11 -171 2 -6 9 -11 9 -23 -1
-11 -9 -16 -10 -16 -2 0 7 -22 11 -57 11 -32 0 -103 7 -158 14 -54 8 -102 14
-105 14 -3 -1 -12 1 -20 5 -8 3 -58 17 -110 32 -138 38 -184 60 -177 85 3 11
4 20 4 19 -1 0 -9 -4 -17 -9z"/>
  </g>
  <g id="accent" fill="#e84393">
    <path d="M3603 5084 c-153 -74 -234 -250 -188 -407 26 -86 59 -131 150 -207
17 -14 28 -24 26 -23 -9 6 -32 -38 -25 -49 4 -7 3 -8 -4 -4 -14 8 -46 -50 -36
-66 5 -7 3 -8 -6 -3 -10 6 -12 4 -7 -8 4 -10 2 -16 -6 -14 -7 1 -11 -6 -11
-15 1 -10 -2 -15 -7 -13 -11 8 -31 -33 -23 -47 4 -7 3 -8 -4 -4 -14 8 -46 -50
-36 -66 5 -7 3 -8 -6 -3 -10 6 -12 4 -7 -9 4 -10 3 -15 -3 -11 -12 7 -33 -32
-24 -47 5 -7 3 -8 -6 -3 -10 6 -12 4 -7 -9 4 -9 3 -15 -2 -11 -13 7 -84 -122
-75 -137 5 -7 3 -8 -6 -3 -10 6 -12 4 -7 -9 5 -11 3 -15 -5 -10 -8 5 -9 2 -5
-10 5 -11 3 -15 -5 -10 -8 5 -9 2 -5 -10 4 -10 3 -15 -3 -11 -5 3 -20 -14 -34
-38 -23 -39 -25 -48 -15 -76 15 -41 -3 -79 -40 -87 -47 -10 -53 -14 -47 -30 3
-8 2 -12 -4 -9 -12 7 -33 -32 -24 -47 4 -6 3 -8 -3 -5 -13 8 -26 -20 -16 -35
4 -7 1 -8 -7 -3 -10 6 -12 4 -7 -9 4 -9 3 -15 -2 -12 -12 8 -23 -22 -14 -37 3
-7 2 -9 -2 -4 -12 10 -57 -71 -62 -111 -3 -30 0 -34 40 -52 23 -10 85 -31 137
-45 52 -15 102 -29 110 -32 8 -4 17 -6 20 -5 3 0 51 -6 105 -14 55 -7 126 -14
158 -14 31 0 57 -4 57 -8 0 -5 7 -9 15 -9 8 0 12 4 9 9 -3 4 0 8 5 8 6 0 11
-4 11 -10 0 -6 35 -10 85 -9 47 0 85 4 85 9 0 4 41 10 91 14 237 18 608 118
583 157 -12 19 153 -85 232 -146 45 -35 121 -106 170 -157 48 -51 74 -75 56
-53 -82 106 -281 275 -395 335 -26 14 -50 33 -53 43 -3 9 -10 14 -16 11 -7 -4
-8 -2 -4 4 9 15 -24 73 -37 65 -6 -3 -7 -1 -3 5 9 15 -22 75 -34 67 -6 -4 -7
1 -3 11 4 12 3 15 -5 10 -8 -5 -10 -1 -5 10 5 13 3 15 -7 9 -9 -5 -11 -4 -6 3
9 15 -12 54 -24 47 -6 -4 -7 1 -3 11 4 11 2 15 -4 11 -6 -4 -10 1 -9 10 1 22
-23 24 -48 4 -11 -9 -16 -11 -13 -4 5 8 -4 10 -32 6 -34 -5 -41 -2 -56 21 -16
24 -16 28 -1 52 10 14 24 28 32 31 7 3 12 8 10 12 -3 4 4 8 15 8 11 1 17 -2
14 -7 -3 -5 -1 -11 5 -15 13 -8 13 6 0 40 -5 14 -14 23 -20 20 -6 -4 -7 1 -3
11 5 13 3 15 -7 9 -8 -5 -11 -4 -6 3 8 14 -63 144 -75 136 -5 -3 -6 3 -2 12 4
12 3 15 -5 10 -8 -5 -10 -1 -5 10 5 13 3 15 -7 9 -9 -5 -11 -4 -6 3 9 15 -22
75 -34 67 -6 -4 -7 1 -3 11 5 13 3 15 -7 9 -9 -5 -11 -4 -6 3 10 16 -12 54
-26 46 -7 -4 -8 -3 -4 4 9 15 -32 95 -44 87 -6 -4 -7 1 -3 11 5 13 3 15 -7 9
-9 -5 -11 -4 -6 3 9 15 -12 54 -24 47 -6 -4 -7 1 -3 11 5 13 3 15 -7 9 -9 -5
-11 -4 -6 3 8 14 -22 75 -33 67 -5 -2 -8 3 -7 13 0 10 -5 16 -14 15 -8 -2 1 9
20 25 74 58 138 132 154 179 23 68 21 179 -5 250 -29 75 -95 145 -175 183 -54
26 -72 30 -150 30 -74 -1 -98 -5 -141 -26z m-26 -956 c15 -6 31 -11 34 -10 12
2 -4 -58 -21 -73 -20 -18 -86 -26 -88 -11 0 6 -5 28 -11 49 -5 21 -7 36 -4 33
3 -3 15 1 27 9 25 18 27 18 63 3z m342 -235 c8 -1 23 -11 35 -22 45 -45 -24
-113 -79 -77 -30 20 -33 56 -5 81 11 10 17 22 13 28 -4 6 -1 7 8 1 8 -4 20 -9
28 -11z m-391 -169 c27 -19 28 -55 2 -79 -58 -52 -135 20 -80 75 24 24 48 25
78 4z m354 -211 c26 -23 22 -58 -8 -82 -34 -27 -50 -26 -79 4 -30 29 -31 35
-4 69 24 30 63 34 91 9z"/>
    <path d="M2693 3183 c-77 -67 -183 -173 -183 -182 0 -3 39 34 88 82 48 47 108
103 135 123 26 20 47 38 47 40 0 10 -16 -2 -87 -63z"/>
    <path d="M5278 2195 c2 -55 6 -102 8 -104 7 -8 3 125 -5 164 -6 26 -7 5 -3
-60z"/>
    <path d="M2174 2075 c0 -49 1 -71 3 -48 2 23 2 64 0 90 -2 26 -3 8 -3 -42z"/>
    <path d="M5294 1780 c0 -96 2 -136 3 -87 2 48 2 126 0 175 -1 48 -3 8 -3 -88z"/>
    <path d="M2175 1050 l0 -425 1593 -3 c1269 -2 1594 0 1597 10 3 7 -4 36 -14
63 -11 28 -20 44 -21 37 0 -7 7 -29 15 -49 8 -19 15 -39 15 -44 0 -5 -684 -9
-1590 -9 l-1590 0 -3 423 -2 422 0 -425z"/>
    <path d="M5284 1345 c0 -60 1 -84 3 -52 2 32 2 81 0 110 -2 29 -3 3 -3 -58z"/>
    <path d="M5282 1080 c1 -80 4 -161 8 -180 4 -19 5 42 2 135 -2 94 -5 175 -7
180 -2 6 -3 -55 -3 -135z"/>
  </g>
</svg>