<?xml version="1.0" encoding="UTF-8"?>
<svg xmlns="http://www.w3.org/2000/svg" version="1.1"
     width="752" height="560" viewBox="0 0 7520 5600">
  <rect id="background" width="100%" height="100%" fill="white"/>
  <g id="primary" fill="#5bb5e8">
    <path d="M3665 4398 c-3 -18 -30 -229 -60 -468 -30 -239 -57 -456 -61 -481 -6
-45 -6 -45 -119 -67 -98 -19 -357 -110 -375 -132 -3 -3 -21 -12 -40 -20 -88
-35 -128 -81 -100 -115 10 -12 30 -15 79 -13 36 1 84 -1 106 -6 37 -7 44 -5
90 32 33 26 55 53 64 78 20 57 39 84 61 84 25 0 34 -33 22 -84 -6 -22 -16 -75
-22 -116 -7 -41 -21 -92 -31 -113 -33 -64 -145 -123 -319 -167 -36 -9 -52 -21
-79 -58 -19 -26 -64 -83 -100 -127 -142 -172 -224 -239 -206 -168 7 30 11 36
179 255 102 133 108 144 102 177 -4 20 -9 72 -12 116 -7 98 -12 125 -24 125
-5 0 -40 -23 -77 -51 -360 -271 -579 -653 -634 -1103 -11 -93 -8 -289 7 -427
7 -63 20 -52 -116 -102 -159 -58 -291 -119 -348 -162 -100 -73 -154 -149 -197
-275 -32 -94 -31 -112 6 -154 54 -62 132 -89 334 -116 44 -6 107 -15 140 -20
33 -5 132 -21 220 -35 310 -50 470 -77 480 -83 6 -3 30 -23 55 -43 59 -49 201
-138 298 -186 77 -38 77 -38 765 -41 677 -2 689 -2 735 18 78 35 272 151 331
198 31 25 61 49 66 53 12 9 226 46 515 89 69 10 154 23 190 29 36 6 122 20
191 31 185 29 239 53 295 125 25 34 25 34 5 102 -56 184 -148 288 -334 377
-62 30 -141 64 -177 76 -179 62 -173 58 -167 99 24 157 29 269 19 389 -42 471
-266 879 -637 1158 -59 44 -79 54 -85 44 -4 -7 -11 -50 -15 -94 -4 -45 -11
-101 -16 -125 -12 -53 -12 -52 131 -233 92 -118 159 -218 160 -240 1 -43 -118
69 -243 227 -127 161 -131 165 -163 165 -48 0 -187 48 -238 81 -76 50 -84 70
-126 297 -12 69 -4 92 30 92 23 0 36 -18 44 -60 10 -55 40 -96 90 -120 41 -21
49 -22 91 -10 28 8 66 10 100 6 48 -5 55 -4 65 14 24 44 9 61 -90 112 -51 26
-102 48 -111 48 -10 0 -21 5 -24 10 -3 6 -13 10 -20 10 -8 0 -38 11 -67 24
-46 20 -135 44 -273 73 -47 10 -38 -26 -85 353 -43 343 -79 620 -86 653 -6 27
-6 27 -94 27 -89 0 -89 0 -95 -32z m266 -2084 c56 -6 56 -6 42 -67 -25 -106
-69 -169 -145 -208 -53 -27 -96 -24 -150 10 -60 38 -96 87 -119 162 -24 75
-24 96 -1 102 28 6 313 7 373 1z"/>
  </g>
  <g id="accent" fill="#e84393">
    <path d="M3536 5195 c-33 -36 -36 -103 -6 -130 11 -10 20 -24 20 -31 0 -22
-60 -203 -69 -208 -5 -3 -25 15 -44 40 -31 39 -34 49 -25 69 14 32 2 91 -24
115 -42 39 -128 19 -148 -35 -14 -36 5 -88 39 -108 35 -20 38 -30 102 -275 26
-101 51 -188 57 -194 5 -5 59 -8 123 -7 173 4 283 4 403 -1 100 -3 110 -2 125
17 10 11 34 92 55 179 58 242 66 266 87 271 24 7 59 63 59 95 0 71 -104 105
-157 52 -23 -23 -25 -31 -20 -82 5 -50 3 -59 -20 -86 -56 -66 -56 -66 -93 54
-32 109 -32 109 -11 136 70 89 -34 202 -122 131 -33 -27 -39 -82 -13 -122 11
-16 15 -34 10 -48 -13 -41 -96 -207 -104 -207 -7 0 -68 121 -97 193 -14 34
-14 39 1 56 22 24 21 93 -2 121 -10 13 -33 23 -59 27 -36 5 -45 2 -67 -22z"/>
    <path d="M3618 4105 c-4 -27 -9 -79 -12 -115 -4 -52 -2 -45 10 30 8 52 13 104
11 115 -1 11 -6 -2 -9 -30z"/>
    <path d="M3073 3452 c-40 -4 -105 -65 -134 -127 -12 -25 -23 -45 -25 -45 -2 0
-3 13 -2 29 5 61 -61 92 -103 50 -18 -18 -20 -29 -15 -68 3 -25 9 -72 13 -103
3 -35 11 -58 18 -58 8 0 14 -30 18 -92 3 -51 9 -115 12 -143 7 -55 8 -53 -175
-283 -96 -121 -134 -201 -82 -173 44 23 170 165 277 310 41 55 48 60 92 66 26
4 62 13 78 20 17 7 48 18 70 25 52 16 139 77 159 111 8 14 24 75 35 135 11 60
23 118 26 129 3 11 -1 29 -9 40 -22 29 -46 10 -68 -54 -22 -66 -28 -74 -91
-110 -48 -28 -52 -28 -89 -15 -36 12 -83 12 -129 -2 -18 -5 -59 38 -59 61 0
19 123 89 236 135 56 22 106 40 113 40 7 0 4 15 -9 40 -27 53 -95 89 -157 82z"/>
    <path d="M4345 3431 c-36 -21 -68 -66 -63 -88 2 -9 25 -24 53 -33 120 -42 153
-55 198 -82 26 -15 51 -28 56 -28 4 0 16 -9 25 -19 16 -17 16 -22 3 -48 -15
-27 -19 -28 -89 -29 -40 -1 -87 -5 -104 -9 -62 -14 -146 52 -160 127 -10 52
-23 70 -47 66 -20 -3 -22 -8 -20 -73 3 -77 26 -193 48 -234 17 -34 60 -74 107
-99 43 -24 158 -60 208 -64 30 -3 42 -14 100 -89 132 -174 260 -308 293 -309
17 0 -50 107 -138 223 -177 233 -159 200 -147 265 6 31 14 94 17 140 4 47 12
82 18 82 44 0 323 -259 411 -383 48 -67 77 -96 35 -34 -93 135 -238 283 -379
387 -61 44 -62 45 -56 85 24 161 21 177 -34 189 -29 7 -65 -19 -79 -56 -9 -23
-9 -23 -21 7 -17 44 -57 93 -90 110 -40 21 -109 19 -145 -4z"/>
    <path d="M2760 3104 c-60 -43 -158 -128 -165 -144 -3 -8 16 6 42 31 26 25 74
64 106 87 31 24 57 45 57 47 0 7 0 6 -40 -21z"/>
    <path d="M2512 2883 c-89 -100 -163 -197 -192 -254 -20 -39 3 -10 57 71 28 41
77 104 109 140 81 89 98 110 92 110 -3 0 -32 -30 -66 -67z"/>
    <path d="M2248 2494 c-27 -58 -48 -107 -46 -109 2 -2 26 46 55 106 28 60 49
109 47 109 -3 0 -28 -48 -56 -106z"/>
    <path d="M2166 2288 c-14 -46 -26 -91 -25 -99 0 -7 13 29 29 81 16 52 27 96
25 98 -2 2 -15 -34 -29 -80z"/>
    <path d="M3663 2313 c37 -2 96 -2 130 0 34 2 4 3 -68 3 -71 0 -99 -1 -62 -3z"/>
    <path d="M3946 2188 c-12 -36 -34 -68 -68 -101 -27 -27 -41 -44 -31 -39 36 20
76 68 100 120 14 29 23 57 21 62 -2 6 -11 -13 -22 -42z"/>
    <path d="M3616 2098 c31 -35 106 -78 133 -77 23 1 22 2 -6 9 -37 8 -65 26
-106 64 -34 31 -48 34 -21 4z"/>
    <path d="M5418 1970 c2 -47 6 -87 8 -89 7 -8 2 114 -6 144 -4 17 -5 -8 -2 -55z"/>
    <path d="M2096 1958 c-8 -68 -7 -270 2 -328 4 -25 7 51 7 168 0 116 0 212 -1
212 -1 0 -4 -24 -8 -52z"/>
    <path d="M5406 1563 c-10 -65 -8 -70 35 -87 23 -9 43 -15 46 -12 2 2 -11 9
-30 15 -42 14 -49 29 -41 82 4 21 4 39 2 39 -3 0 -8 -17 -12 -37z"/>
    <path d="M2670 563 c34 -27 76 -56 93 -66 31 -18 31 -18 7 0 -13 10 -51 39
-84 66 -33 26 -63 47 -69 47 -5 0 19 -21 53 -47z"/>
    <path d="M4829 557 c-36 -29 -95 -70 -132 -92 -37 -21 -65 -40 -63 -42 2 -2
19 5 37 16 19 11 48 28 64 37 17 9 53 36 82 61 29 24 65 50 80 58 15 8 21 15
13 15 -8 0 -45 -24 -81 -53z"/>
    <path d="M4532 374 c-46 -24 -78 -44 -72 -44 14 0 119 53 145 74 30 23 18 18
-73 -30z"/>
  </g>
</svg>