<?xml version="1.0" encoding="UTF-8"?>
<svg xmlns="http://www.w3.org/2000/svg" version="1.1"
     width="752" height="560" viewBox="0 0 7520 5600">
  
  <!-- VARIABLE: Background — change fill to customize -->
  <rect id="background" width="100%" height="100%" fill="white"/>
  <g transform="translate(0,5600) scale(1,-1)">
  
  <!-- VARIABLE: Skin/body color — change fill to customize -->
  <g id="skin" fill="#5bb5e8">
    <path d="M3716 5588 c-8 -27 -96 -766 -95 -788 1 -8 5 1 10 20 4 21 6 -6 3
-70 -6 -122 -15 -165 -24 -110 -4 25 -9 -2 -18 -90 -7 -69 -21 -199 -32 -290
-23 -193 -23 -189 -9 -170 8 11 9 6 5 -20 -3 -19 -6 -62 -7 -95 -3 -77 -12
-101 -21 -55 -5 24 -5 17 -2 -18 4 -38 2 -52 -6 -47 -8 5 -11 -6 -9 -37 2 -24
0 -48 -3 -53 -3 -6 -16 -99 -29 -208 -19 -170 -20 -200 -8 -209 11 -8 10 -9
-3 -4 -10 3 -18 1 -18 -4 0 -5 -12 -12 -27 -16 -16 -3 -77 -21 -138 -40 -298
-94 -572 -295 -767 -561 -43 -58 -118 -184 -118 -197 0 -3 109 -6 243 -6 498
-1 633 -19 705 -93 32 -33 32 -33 105 -13 62 17 103 20 307 20 204 0 244 -3
306 -20 71 -20 71 -20 116 21 25 23 64 47 87 54 58 17 319 30 609 31 l243 0
-36 68 c-129 244 -370 473 -640 607 -120 60 -296 125 -337 125 -9 0 -20 5 -23
10 -4 6 -14 71 -23 145 -11 91 -20 135 -28 135 -14 0 -24 87 -22 200 2 102
-32 382 -47 395 -11 9 -17 35 -30 150 -3 21 0 42 5 45 6 4 0 86 -15 221 -14
117 -25 225 -26 239 -1 25 -1 25 -8 0 -7 -25 -7 -25 -13 0 -11 40 -19 180 -9
145 12 -42 13 -8 1 77 -5 40 -21 173 -36 296 -28 222 -28 222 -71 222 -26 0
-45 -5 -47 -12z"/>
    <path d="M2338 2373 c-75 -219 -78 -254 -78 -1038 0 -749 -3 -807 -56 -970
-34 -105 -92 -228 -143 -304 l-42 -61 1621 0 1621 0 -4 1052 c-3 1036 -3 1054
-24 1143 -12 50 -31 121 -43 159 -22 68 -22 68 -57 35 -48 -47 -60 -73 -72
-164 -18 -129 -48 -212 -98 -271 -36 -43 -114 -93 -179 -114 -57 -19 -82 -22
-173 -18 -93 4 -115 8 -172 35 -127 60 -207 148 -259 286 -17 45 -36 94 -42
109 -6 17 -27 36 -57 50 -42 21 -62 23 -258 26 -228 4 -357 -7 -406 -35 -24
-15 -37 -37 -67 -119 -64 -172 -126 -247 -256 -310 -74 -36 -86 -39 -186 -42
-120 -5 -179 9 -261 60 -103 65 -158 162 -183 320 -18 116 -28 139 -76 186
-34 32 -34 32 -50 -15z m1652 -126 c0 -52 -35 -171 -64 -221 -48 -82 -129
-124 -200 -105 -52 14 -119 80 -149 146 -33 74 -54 193 -35 204 7 5 111 9 231
9 217 0 217 0 217 -33z"/>
  </g>
  
  <!-- FIXED: Details, eyes, accessories — do not change -->
  <g id="details" fill="#1a3a5c">
    <path d="M3700 5569 c0 -18 -6 -75 -14 -128 -36 -239 -46 -322 -50 -411 -5
-95 -5 -95 5 -25 8 59 40 309 68 538 4 31 4 57 -1 57 -4 0 -8 -14 -8 -31z"/>
    <path d="M3811 5584 c0 -12 8 -86 18 -165 18 -128 29 -226 45 -394 4 -41 4
-45 -4 -20 -10 34 -3 -101 8 -145 6 -25 6 -25 13 0 4 14 7 39 7 55 0 29 0 29
-7 5 -5 -15 -7 9 -7 60 1 47 -3 114 -7 150 -4 36 -15 124 -23 195 -18 149 -41
290 -43 259z"/>
    <path d="M3626 4860 c3 -55 2 -71 -6 -60 -8 11 -9 -1 -4 -44 5 -47 4 -57 -6
-51 -10 6 -12 1 -7 -25 4 -18 7 -42 7 -54 1 -17 2 -18 9 -6 14 24 22 200 11
260 -9 53 -9 52 -4 -20z"/>
    <path d="M3900 4844 c0 -5 11 -106 25 -223 15 -135 21 -217 15 -221 -5 -3 -8
-24 -5 -45 13 -115 19 -141 30 -150 15 -13 49 -293 47 -395 -2 -113 8 -200 22
-200 8 0 17 -44 28 -135 9 -74 19 -139 23 -145 3 -5 14 -10 23 -10 41 0 217
-65 337 -125 270 -134 511 -363 640 -607 l36 -68 -243 0 c-290 -1 -551 -14
-609 -31 -23 -7 -62 -31 -87 -54 -45 -41 -45 -41 -116 -21 -62 17 -102 20
-306 20 -204 0 -245 -3 -307 -20 -73 -20 -73 -20 -105 13 -72 74 -207 92 -705
93 -134 0 -243 3 -243 6 0 13 75 139 118 197 195 266 469 467 767 561 61 19
122 37 138 40 15 4 27 11 27 16 0 5 8 7 18 4 13 -5 14 -4 3 4 -12 9 -11 39 8
209 13 109 26 201 30 205 3 4 5 27 2 50 -4 39 -6 34 -17 -42 -6 -47 -20 -157
-29 -245 -10 -88 -23 -166 -30 -173 -6 -7 -36 -19 -66 -26 -171 -43 -389 -146
-496 -236 -7 -5 -15 -10 -18 -10 -14 0 -184 -153 -244 -219 -102 -114 -221
-293 -221 -332 0 -16 -4 -19 -21 -14 -15 5 -19 4 -15 -4 4 -6 3 -11 -1 -11 -5
0 -9 -17 -10 -37 0 -21 -15 -81 -33 -133 -62 -186 -62 -191 -70 -1040 -5 -556
-10 -788 -19 -820 -42 -157 -120 -333 -183 -412 -16 -21 -28 -43 -26 -50 6
-18 85 102 128 196 53 113 87 224 105 341 12 82 15 227 15 790 0 566 3 707 15
783 16 96 48 222 69 273 13 30 13 30 53 -14 47 -51 47 -51 68 -180 24 -154 80
-250 182 -315 82 -51 141 -65 261 -60 100 3 112 6 186 42 130 63 192 138 256
310 30 82 43 104 67 119 49 28 178 39 406 35 196 -3 216 -5 258 -26 30 -14 51
-33 57 -50 6 -15 25 -64 42 -109 52 -138 132 -226 259 -286 57 -27 79 -31 172
-35 91 -4 116 -1 173 18 65 21 143 71 179 114 50 59 80 142 98 271 12 91 24
117 72 164 35 33 35 33 57 -35 12 -38 31 -109 43 -159 21 -88 21 -112 27
-1145 l5 -1055 3 1035 c2 1118 4 1065 -52 1270 -15 52 -29 117 -33 144 -5 48
-24 82 -37 69 -3 -4 -6 -1 -6 6 0 16 -133 224 -183 286 -44 54 -199 211 -234
235 -27 19 -149 100 -188 125 -62 40 -174 89 -305 134 -153 52 -135 28 -160
221 -17 126 -19 137 -31 119 -7 -9 -8 7 -5 51 3 36 2 57 -2 46 -5 -11 -8 21
-9 80 -1 55 -11 173 -22 263 -12 91 -21 170 -22 175 -1 6 -5 0 -10 -14 -6 -17
-7 -6 -3 35 4 46 2 56 -6 45 -9 -11 -10 -2 -6 40 5 55 -36 475 -48 487 -3 4
-6 2 -6 -3z"/>
    <path d="M3586 4583 c-8 -52 -34 -272 -42 -358 -3 -38 -9 -92 -14 -118 -4 -26
-3 -50 1 -53 5 -3 9 -19 9 -35 0 -19 -4 -28 -11 -23 -7 4 -9 -11 -4 -52 5 -43
3 -55 -4 -44 -9 12 -11 10 -11 -11 0 -14 3 -29 7 -32 11 -12 29 56 32 119 1
32 4 75 7 94 4 26 3 31 -5 20 -14 -19 -14 -29 9 172 30 251 40 352 36 356 -2
2 -7 -14 -10 -35z"/>
    <path d="M3542 2271 c-19 -11 2 -130 35 -204 30 -66 97 -132 149 -146 71 -19
152 23 200 105 29 50 64 169 64 221 0 33 0 33 -217 33 -120 0 -224 -4 -231 -9z
m426 -46 c6 -68 -33 -177 -80 -228 -35 -37 -90 -67 -123 -67 -53 1 -120 44
-157 101 -43 67 -75 222 -48 231 6 2 99 3 208 3 197 0 197 0 200 -40z"/>
  </g>
  </g>
</svg>