<?xml version="1.0" encoding="UTF-8"?>
<svg xmlns="http://www.w3.org/2000/svg" version="1.1"
     width="752" height="560" viewBox="0 0 7520 5600">
  <rect id="background" width="100%" height="100%" fill="white"/>
  <g id="primary" fill="#c4a87a">
    <path d="M3441 4984 c-409 -52 -780 -191 -1121 -419 -373 -248 -664 -581 -858
-978 -226 -464 -295 -987 -195 -1477 35 -173 34 -170 45 -170 5 0 7 -4 3 -9
-7 -13 35 -141 47 -141 5 0 7 -4 3 -9 -11 -18 111 -294 126 -285 5 3 6 -3 2
-12 -4 -12 -3 -15 5 -10 8 5 10 2 6 -8 -4 -9 1 -18 10 -22 9 -3 14 -10 11 -14
-6 -9 103 -182 174 -276 217 -287 498 -528 812 -698 118 -63 376 -168 506
-206 480 -137 1050 -133 1518 11 140 43 335 122 435 176 154 83 171 93 243
142 248 168 482 392 634 606 110 156 270 445 258 465 -4 6 -2 10 4 10 24 0
160 441 150 486 -1 5 1 16 4 24 28 69 35 469 12 662 -65 550 -326 1069 -736
1463 -267 256 -572 440 -952 574 -135 47 -343 93 -537 117 -141 17 -467 17
-609 -2z"/>
  </g>
  <g id="accent" fill="#e84393">
    <path d="M3668 5003 c45 -2 119 -2 165 0 45 1 8 3 -83 3 -91 0 -128 -2 -82 -3z"/>
    <path d="M2318 4577 c-37 -23 -68 -45 -68 -50 0 -4 32 14 70 39 61 41 78 54
68 54 -2 0 -33 -19 -70 -43z"/>
    <path d="M1938 4263 c-97 -98 -213 -230 -233 -264 -13 -22 7 -1 66 71 29 36
105 118 168 183 63 64 112 117 110 117 -2 0 -52 -48 -111 -107z"/>
    <path d="M5565 4270 c55 -55 102 -100 105 -100 2 0 -40 45 -95 100 -55 55
-102 100 -105 100 -2 0 40 -45 95 -100z"/>
    <path d="M5871 3903 c49 -74 83 -118 64 -83 -19 33 -106 160 -111 160 -2 0 19
-35 47 -77z"/>
    <path d="M6084 3530 c14 -45 76 -180 71 -155 -3 17 -22 62 -41 100 -19 39 -32
63 -30 55z"/>
    <path d="M6290 2538 c-3 -108 -2 -194 3 -189 4 4 6 93 5 197 l-3 189 -5 -197z"/>
    <path d="M1603 1278 c10 -16 15 -28 13 -28 -3 0 6 -12 20 -27 13 -14 37 -45
53 -69 31 -47 87 -114 96 -114 3 0 -14 24 -38 53 -24 29 -65 84 -92 123 -51
73 -80 108 -52 62z"/>
    <path d="M1859 951 c39 -43 79 -85 88 -92 10 -8 -20 28 -66 79 -46 50 -86 92
-88 92 -3 0 27 -35 66 -79z"/>
    <path d="M2024 793 c27 -29 70 -66 95 -83 40 -27 41 -28 11 -3 -19 15 -62 53
-95 83 -60 54 -60 54 -11 3z"/>
    <path d="M2211 637 c109 -83 306 -204 315 -194 2 2 -33 24 -79 49 -45 26 -124
76 -175 112 -97 69 -137 90 -61 33z"/>
    <path d="M5225 589 c-93 -66 -113 -81 -95 -73 28 14 159 104 165 114 9 14 8
14 -70 -41z"/>
    <path d="M3060 229 c30 -13 51 -17 105 -24 22 -3 6 4 -35 14 -82 22 -109 25
-70 10z"/>
    <path d="M3652 143 c48 -2 129 -2 180 0 51 1 12 3 -87 3 -99 0 -141 -2 -93 -3z"/>
  </g>
</svg>