<?xml version="1.0" encoding="UTF-8"?>
<svg xmlns="http://www.w3.org/2000/svg" version="1.1"
     width="752" height="560" viewBox="0 0 7520 5600">
  
  <!-- VARIABLE: Background — change fill to customize -->
  <rect id="background" width="100%" height="100%" fill="white"/>
  <g transform="translate(0,5600) scale(1,-1)">
  
  <!-- VARIABLE: Skin/body color — change fill to customize -->
  <g id="skin" fill="#5bb5e8">
    <path d="M3673 4404 c2 -13 1 -22 -2 -19 -11 6 -66 -443 -65 -525 1 -56 -1
-67 -7 -45 -6 23 -7 17 -4 -23 2 -29 1 -50 -4 -48 -4 3 -13 -43 -20 -102 -7
-59 -17 -137 -23 -174 -11 -66 -11 -66 -97 -82 -126 -24 -174 -39 -299 -94
-143 -64 -232 -113 -246 -136 -9 -14 -6 -21 12 -36 18 -15 33 -18 72 -13 28 3
69 0 93 -7 43 -11 46 -11 90 22 45 33 63 59 91 131 12 29 20 37 41 37 14 0 28
-7 32 -16 11 -29 -37 -272 -61 -310 -40 -59 -154 -118 -301 -153 -56 -13 -54
-11 -194 -184 -94 -117 -181 -207 -201 -207 -20 0 -10 46 19 91 17 24 77 105
135 179 58 74 109 145 112 158 8 29 -13 263 -24 274 -13 13 -188 -129 -283
-229 -330 -346 -487 -824 -424 -1293 10 -80 11 -106 2 -112 -9 -5 -8 -8 3 -8
8 -1 0 -7 -19 -15 -41 -18 -44 -18 -35 -2 6 9 5 9 -8 0 -8 -7 -19 -9 -23 -5
-5 4 -5 2 -2 -4 4 -7 -2 -14 -13 -17 -11 -3 -18 -1 -15 3 3 4 -11 3 -30 -3
-24 -7 -31 -13 -23 -19 13 -8 -6 -12 -42 -10 -8 0 -19 -6 -23 -14 -4 -8 -13
-14 -20 -14 -7 0 -6 4 3 10 8 5 11 10 5 9 -14 0 -82 -38 -70 -39 13 0 -16 -20
-30 -20 -5 0 -3 5 5 10 8 5 11 10 7 10 -13 0 -105 -49 -112 -60 -3 -5 10 -1
29 11 20 12 36 19 36 16 0 -10 -72 -47 -80 -42 -5 3 -12 0 -16 -6 -5 -8 -3 -9
7 -4 12 8 12 6 0 -9 -8 -9 -20 -15 -26 -12 -7 2 -28 -12 -46 -31 -19 -20 -28
-32 -20 -28 9 5 12 3 9 -6 -3 -8 -10 -14 -18 -14 -7 0 -19 -11 -28 -25 -14
-25 -14 -25 7 0 11 14 21 20 21 13 0 -7 -13 -22 -30 -35 -16 -12 -30 -27 -30
-32 0 -6 5 -4 10 4 15 24 12 4 -7 -34 -9 -19 -20 -33 -25 -30 -5 3 -6 -7 -3
-23 5 -22 4 -25 -5 -13 -9 12 -10 9 -5 -13 4 -19 2 -26 -5 -22 -7 4 -9 -2 -5
-18 4 -14 2 -28 -4 -31 -6 -4 -11 -13 -11 -19 0 -7 4 -6 11 3 9 12 10 11 6 -7
-4 -17 4 -31 29 -53 19 -16 38 -30 41 -30 3 0 -11 16 -33 35 -21 19 -33 34
-26 35 6 0 12 -5 12 -10 0 -6 16 -20 35 -31 19 -12 32 -25 29 -30 -3 -5 3 -6
12 -2 11 4 15 2 11 -4 -7 -11 35 -34 61 -32 11 1 8 4 -8 10 -21 7 -20 8 10 4
154 -18 263 -39 245 -46 -13 -6 -1 -7 30 -4 38 4 45 3 30 -5 -15 -8 -8 -9 28
-4 27 3 54 1 60 -4 19 -14 49 -23 42 -12 -3 6 -2 10 4 10 5 0 11 -5 13 -10 2
-6 21 -12 43 -15 37 -4 38 -4 10 5 -27 9 -27 9 10 5 22 -3 49 -5 60 -6 14 -1
11 -4 -10 -10 -23 -6 -19 -7 20 -4 29 3 45 1 37 -4 -17 -10 82 -23 118 -15 20
5 22 4 10 -6 -12 -9 -6 -10 26 -6 53 7 111 -3 92 -16 -8 -6 4 -6 32 -2 60 10
83 8 95 -8 39 -51 228 -179 373 -252 72 -36 72 -36 772 -36 700 0 700 0 773
36 120 61 208 115 284 176 39 32 80 58 90 58 14 0 15 2 4 9 -25 16 67 34 139
28 45 -4 57 -3 40 3 -19 7 -13 8 25 5 37 -3 45 -2 30 5 -15 7 -7 8 30 5 39 -4
45 -2 25 5 -19 7 -12 9 30 5 32 -3 49 -1 41 4 -9 6 2 11 34 15 26 4 49 5 53 2
3 -3 -7 -6 -23 -6 -16 0 -26 -2 -23 -5 10 -11 109 8 124 23 11 10 27 13 58 9
24 -4 61 -3 82 0 36 6 37 7 14 15 -17 5 -8 6 28 4 30 -2 49 0 42 4 -6 4 34 14
89 23 105 18 157 21 106 6 -24 -7 -21 -7 14 -3 25 3 63 14 85 25 23 10 33 17
23 14 -11 -3 -15 -1 -12 6 4 5 15 9 25 7 22 -4 75 33 91 63 6 12 7 19 1 15 -5
-3 -9 5 -9 19 0 14 3 22 8 19 5 -3 9 2 9 11 0 9 -4 14 -9 11 -5 -4 -7 4 -3 16
4 15 2 19 -7 13 -10 -6 -11 -2 -6 15 5 16 4 20 -4 15 -8 -5 -10 1 -6 18 4 14
2 28 -4 31 -7 5 -9 0 -5 -11 3 -10 -2 -6 -11 10 -9 15 -13 33 -9 40 4 6 4 9
-1 5 -4 -4 -14 0 -21 10 -19 24 -17 40 2 16 11 -13 10 -10 -2 13 -10 18 -43
57 -73 85 -31 29 -47 43 -37 31 11 -13 15 -23 9 -23 -12 0 -49 39 -46 49 1 3
-1 8 -4 11 -4 3 -3 -1 1 -7 11 -19 0 -16 -50 13 -24 14 -42 30 -39 34 3 4 -2
11 -11 14 -8 3 -12 2 -9 -4 8 -13 4 -13 -39 5 -20 9 -34 19 -31 24 5 10 -25
25 -33 16 -3 -3 1 -5 8 -5 7 0 11 -2 8 -5 -9 -9 -38 7 -32 17 4 6 -1 8 -12 4
-11 -3 -26 -1 -34 5 -13 9 -12 10 3 5 11 -4 16 -2 11 5 -3 6 -15 9 -25 6 -11
-3 -19 -1 -19 5 0 5 -5 6 -11 3 -14 -9 -61 3 -54 14 7 12 -19 21 -43 14 -11
-3 -29 0 -39 6 -12 7 -13 10 -4 11 9 0 10 4 4 13 -7 8 -6 32 3 72 18 86 18
369 -2 480 -60 348 -204 632 -439 869 -102 102 -251 223 -261 213 -4 -3 -13
-69 -22 -146 -14 -134 -14 -140 4 -164 10 -14 64 -83 120 -153 104 -134 154
-211 154 -238 0 -19 -14 -21 -32 -3 -7 6 -27 24 -45 39 -28 23 -164 182 -258
302 -27 34 -39 40 -125 63 -222 57 -270 107 -300 308 -6 39 -13 86 -17 107 -4
30 -2 38 16 47 27 15 61 -2 61 -29 0 -18 10 -49 33 -98 6 -12 34 -34 62 -47
44 -22 56 -24 81 -15 16 6 58 10 94 8 61 -3 65 -2 79 24 14 24 14 28 -3 46 -9
11 -32 26 -49 33 -18 7 -44 21 -59 31 -14 10 -33 18 -42 18 -9 0 -24 4 -34 9
-9 5 -28 13 -42 19 -14 5 -52 21 -85 35 -33 14 -103 35 -155 47 -171 38 -154
27 -164 100 -8 55 -11 60 -16 35 -5 -25 -8 -20 -14 32 -4 34 -5 79 -2 100 3
21 -5 117 -18 213 -13 96 -25 164 -26 150 -2 -15 -8 0 -15 35 -7 37 -8 65 -2
72 5 8 3 59 -7 135 -28 210 -12 186 -117 186 -90 0 -91 0 -86 -24z m317 -2091
c-1 -17 -28 -120 -39 -147 -33 -84 -115 -146 -192 -146 -38 0 -56 6 -91 33
-57 43 -104 115 -119 181 -20 90 -30 86 221 86 121 0 220 -3 220 -7z m-1007
-171 c9 -2 17 2 17 8 0 5 7 10 16 10 9 0 12 -5 8 -12 -5 -7 -3 -8 6 -3 8 5 18
2 25 -9 16 -21 8 -57 -11 -49 -8 3 -11 10 -7 17 4 6 -1 5 -10 -3 -13 -11 -17
-11 -17 -1 0 8 -3 11 -6 8 -6 -7 -54 36 -54 48 0 5 4 5 8 -1 4 -5 15 -11 25
-13z m1527 7 c0 -5 5 -7 10 -4 6 3 10 4 10 1 0 -2 3 -11 6 -20 3 -9 1 -16 -6
-16 -6 0 -8 5 -5 11 7 11 -36 -11 -45 -23 -5 -6 -18 -5 -50 2 -3 0 4 7 14 15
14 11 16 15 5 15 -10 1 -9 5 5 15 23 17 56 20 56 4z"/>
  </g>
  
  <!-- FIXED: Details, eyes, accessories — do not change -->
  <g id="details" fill="#1a3a5c">
    <path d="M3543 5205 c-26 -18 -46 -75 -36 -101 3 -10 15 -31 25 -45 19 -25 19
-27 -2 -95 -12 -38 -29 -85 -37 -104 -15 -35 -15 -35 -49 2 -31 34 -33 41 -28
82 7 51 -9 101 -37 116 -45 24 -131 0 -144 -41 -13 -40 4 -88 40 -112 31 -20
36 -32 74 -167 22 -80 48 -176 57 -215 9 -38 23 -77 31 -85 10 -11 38 -15 119
-15 105 0 105 0 100 -30 -2 -16 -10 -68 -16 -115 -6 -47 -15 -110 -20 -140
-12 -74 -24 -216 -17 -210 2 3 17 107 33 232 15 125 31 225 35 223 3 -3 4 6 2
19 -5 24 -4 24 86 24 105 0 89 24 117 -186 10 -76 12 -128 7 -133 -6 -6 -6
-34 1 -72 8 -50 11 -57 17 -37 4 14 7 39 7 55 0 29 0 29 -8 5 -8 -25 -8 -25
-9 3 -1 15 3 27 7 27 9 0 0 99 -21 235 -10 64 -11 92 -4 97 6 4 50 5 98 3 110
-6 129 7 149 92 7 32 21 87 30 123 10 36 21 81 25 100 18 94 38 150 57 156 25
8 58 62 58 96 0 15 -10 39 -23 53 -28 34 -86 37 -126 7 -23 -17 -26 -27 -27
-80 -1 -46 -7 -68 -25 -94 -23 -32 -38 -48 -50 -48 -3 0 -20 47 -37 104 -32
104 -32 104 -7 142 20 29 24 45 19 68 -16 78 -99 103 -155 47 -34 -35 -36 -62
-9 -113 12 -22 16 -40 10 -43 -6 -3 -10 -14 -10 -23 0 -9 -14 -46 -31 -82 -45
-95 -45 -95 -59 -95 -15 0 -14 -1 -69 118 -42 90 -47 107 -32 107 16 0 33 58
26 89 -13 60 -92 91 -142 56z"/>
    <path d="M3916 3930 c4 -36 13 -103 19 -150 10 -65 13 -74 14 -40 0 53 -25
239 -34 249 -4 3 -3 -23 1 -59z"/>
    <path d="M3566 3703 c-9 -65 -21 -155 -28 -201 -6 -46 -15 -85 -19 -88 -5 -2
-60 -16 -124 -29 -64 -14 -124 -29 -133 -34 -13 -7 -19 -3 -29 20 -6 16 -34
43 -60 60 -40 25 -55 29 -88 24 -51 -7 -81 -29 -126 -92 -35 -51 -35 -51 -46
-23 -14 36 -56 49 -92 29 -23 -13 -26 -22 -26 -64 0 -28 4 -75 8 -105 8 -55 8
-55 -60 -107 -129 -98 -215 -182 -312 -303 -42 -52 -80 -98 -86 -102 -5 -4 -6
-8 -1 -8 5 0 2 -7 -5 -16 -7 -9 -18 -24 -24 -35 -43 -77 -78 -146 -96 -191
-11 -29 -27 -66 -34 -83 -22 -49 -65 -214 -78 -295 -22 -142 -11 -570 15 -570
5 0 7 15 4 33 -39 235 -33 418 20 645 65 278 194 516 393 725 95 100 270 242
283 229 11 -11 32 -245 24 -274 -3 -13 -54 -84 -112 -158 -58 -74 -118 -155
-135 -179 -29 -45 -39 -91 -19 -91 20 0 107 90 201 207 140 173 138 171 194
184 147 35 261 94 301 153 24 38 72 281 61 310 -4 9 -18 16 -32 16 -21 0 -29
-8 -41 -37 -28 -72 -46 -98 -91 -131 -44 -33 -47 -33 -90 -22 -24 7 -65 10
-93 7 -39 -5 -54 -2 -72 13 -18 15 -21 22 -12 36 14 23 103 72 246 136 125 55
173 70 299 94 86 16 86 16 97 82 6 37 16 115 23 174 7 59 16 105 21 102 8 -5
1 64 -7 74 -1 1 -10 -50 -19 -115z"/>
    <path d="M3945 3641 c-4 -27 -3 -76 1 -108 7 -51 9 -54 15 -28 7 30 7 30 8 1
0 -16 4 -27 7 -23 3 3 3 30 -2 59 -6 44 -8 49 -15 28 -6 -22 -7 -20 -8 13 -1
21 2 36 7 33 4 -2 6 13 4 35 -2 21 -5 39 -7 39 -2 0 -6 -22 -10 -49z"/>
    <path d="M3983 3440 c2 -39 -9 -34 157 -70 52 -12 122 -33 155 -47 33 -14 71
-30 85 -35 14 -6 33 -14 42 -19 10 -5 25 -9 34 -9 9 0 28 -8 42 -18 15 -10 41
-24 59 -31 17 -7 40 -22 49 -33 17 -18 17 -22 3 -46 -14 -26 -18 -27 -79 -24
-36 2 -78 -2 -94 -8 -25 -9 -37 -7 -81 15 -28 13 -56 35 -62 47 -23 49 -33 80
-33 98 0 27 -34 44 -61 29 -18 -9 -20 -17 -16 -47 4 -21 11 -68 17 -107 30
-201 78 -251 300 -308 86 -23 98 -29 125 -63 94 -120 230 -279 258 -302 18
-15 38 -33 45 -39 18 -18 32 -16 32 3 0 27 -50 104 -154 238 -56 70 -110 139
-120 153 -18 24 -18 30 -4 164 9 77 18 143 22 146 10 10 159 -111 261 -213
235 -237 379 -521 439 -869 20 -111 20 -394 2 -480 -9 -40 -10 -64 -3 -72 6
-9 5 -13 -4 -13 -9 -1 -8 -4 4 -11 10 -6 30 -8 44 -5 16 5 22 3 18 -3 -4 -7 1
-8 11 -4 12 4 15 3 10 -5 -8 -13 37 -28 53 -17 6 3 11 2 11 -3 0 -6 8 -8 19
-5 10 3 22 0 25 -6 5 -7 0 -9 -11 -5 -15 5 -16 4 -3 -5 8 -6 23 -8 34 -5 11 4
16 2 12 -4 -8 -13 19 -23 41 -15 11 4 14 3 9 -5 -9 -15 58 -44 81 -35 10 4 14
2 10 -5 -4 -6 14 -23 45 -41 29 -16 78 -52 108 -80 30 -27 58 -47 62 -45 7 5
12 -9 10 -28 -1 -3 11 -29 27 -58 37 -67 51 -41 15 27 -46 88 -196 225 -226
207 -7 -4 -8 -3 -4 4 9 15 -58 43 -81 35 -10 -4 -14 -2 -10 4 9 14 -38 34 -60
26 -10 -4 -14 -2 -10 4 4 6 -10 17 -31 26 -87 35 -145 57 -157 57 -6 0 -19 8
-28 18 -15 16 -15 26 -5 78 16 82 16 372 -1 464 -37 213 -130 458 -237 626
-21 33 -41 61 -46 62 -4 2 -8 10 -8 18 0 8 -4 14 -8 14 -4 0 -15 13 -25 29
-20 35 -229 246 -266 269 -20 13 -104 74 -118 86 -1 1 4 44 12 96 15 109 10
126 -41 136 -38 7 -69 -12 -84 -51 -6 -17 -10 -15 -28 20 -63 124 -186 146
-270 49 -37 -42 -37 -42 -172 -10 -131 31 -135 33 -142 62 -6 28 -6 28 -5 -6z"/>
    <path d="M3543 2304 c-10 -28 17 -122 50 -171 76 -112 167 -142 259 -84 47 30
80 69 99 117 11 27 38 130 39 147 0 4 -99 7 -220 7 -192 0 -221 -2 -227 -16z
m429 1 c8 -8 -29 -134 -47 -161 -24 -38 -70 -81 -103 -98 -47 -24 -88 -20
-143 17 -70 46 -105 104 -123 204 -5 29 -3 32 22 36 41 6 388 8 394 2z"/>
    <path d="M2950 2156 c0 -12 48 -55 54 -48 3 3 6 0 6 -8 0 -10 4 -10 17 1 9 8
14 9 10 3 -4 -7 -1 -14 7 -17 19 -8 27 28 11 49 -7 11 -17 14 -25 9 -9 -5 -11
-4 -6 3 4 7 1 12 -8 12 -9 0 -16 -5 -16 -10 0 -13 -32 -9 -42 5 -4 6 -8 6 -8
1z"/>
    <path d="M4454 2145 c-14 -10 -15 -14 -5 -15 11 0 9 -4 -5 -15 -10 -8 -17 -15
-14 -15 32 -7 45 -8 50 -2 9 12 52 34 45 23 -3 -6 -1 -11 5 -11 7 0 9 7 6 16
-3 9 -6 18 -6 20 0 3 -4 2 -10 -1 -5 -3 -10 -1 -10 4 0 16 -33 13 -56 -4z"/>
    <path d="M2057 1478 c-16 -6 -24 -14 -20 -21 4 -7 1 -7 -9 1 -9 7 -19 9 -21 4
-3 -4 -45 -21 -94 -37 -90 -29 -138 -56 -125 -70 4 -5 -1 -5 -11 -2 -40 15
-165 -71 -247 -170 -29 -34 -90 -166 -90 -194 0 -10 -4 -21 -10 -24 -5 -3 -10
-20 -10 -36 0 -20 4 -28 11 -23 8 4 9 0 4 -15 -4 -15 1 -27 21 -46 48 -44 112
-75 147 -69 23 3 27 2 13 -4 -30 -13 95 -35 158 -28 38 4 46 3 31 -4 -18 -9
-17 -10 7 -7 15 2 29 1 30 -3 2 -3 68 -17 148 -29 80 -13 154 -26 165 -28 28
-6 53 -10 110 -17 28 -4 93 -14 145 -23 52 -9 118 -17 145 -17 38 -1 56 -7 75
-24 14 -13 40 -32 58 -43 17 -11 32 -24 32 -28 0 -4 37 -29 83 -55 45 -26 91
-52 102 -59 141 -87 88 -82 870 -81 684 0 690 0 735 22 61 29 164 87 229 131
30 20 61 41 70 46 9 6 33 25 53 42 39 34 49 37 133 49 40 5 46 8 30 15 -13 6
-5 7 25 3 40 -5 125 4 200 22 14 3 58 9 98 14 40 5 76 11 81 14 4 3 35 8 67
11 61 6 190 32 165 34 -8 1 -11 4 -8 7 4 4 12 2 19 -4 7 -5 27 -8 43 -4 30 6
30 6 5 13 -25 7 -25 7 3 8 15 1 27 -3 27 -7 0 -10 110 -3 125 8 6 4 24 10 40
14 17 4 58 21 93 38 48 24 68 40 81 67 21 40 20 44 -5 124 -11 37 -21 53 -26
45 -11 -19 -10 -30 3 -22 8 4 9 -1 4 -16 -5 -17 -4 -21 6 -15 9 6 11 2 7 -13
-4 -12 -2 -20 3 -16 5 3 9 -2 9 -11 0 -9 -4 -14 -9 -11 -5 3 -8 -5 -8 -19 0
-14 3 -22 8 -19 5 3 6 -2 3 -10 -3 -9 -10 -14 -14 -11 -11 7 -42 -30 -33 -39
5 -4 1 -7 -7 -5 -24 4 -72 -20 -64 -32 4 -8 -1 -9 -17 -4 -19 5 -21 4 -9 -5
12 -9 7 -10 -20 -6 -28 5 -31 4 -15 -4 15 -8 11 -9 -20 -5 -22 3 -89 -3 -150
-15 -60 -11 -123 -20 -140 -21 -29 -1 -29 -1 -5 -8 15 -4 -9 -7 -60 -8 -50 0
-86 -5 -88 -11 -2 -6 -20 -9 -40 -7 -33 4 -34 4 -7 -3 28 -7 26 -9 -24 -15
-29 -5 -56 -6 -59 -2 -3 3 7 5 23 5 16 0 26 3 23 6 -4 3 -27 2 -53 -2 -32 -4
-43 -9 -34 -15 8 -5 -9 -7 -41 -4 -42 4 -49 2 -30 -5 20 -7 14 -9 -25 -5 -37
3 -45 2 -30 -5 15 -7 7 -8 -30 -5 -38 3 -44 2 -25 -5 17 -6 5 -7 -40 -3 -72 6
-164 -12 -139 -28 11 -7 10 -9 -4 -9 -10 0 -51 -26 -90 -58 -76 -61 -164 -115
-284 -176 -73 -36 -73 -36 -773 -36 -700 0 -700 0 -772 36 -145 73 -334 201
-373 252 -12 16 -35 18 -95 8 -28 -4 -40 -4 -32 2 19 13 -39 23 -92 16 -32 -4
-38 -3 -26 6 12 10 10 11 -10 6 -36 -8 -135 5 -118 15 8 5 -8 7 -37 4 -35 -3
-41 -2 -20 3 29 8 28 8 -18 15 -27 4 -60 4 -73 1 -15 -4 -24 -2 -24 5 0 6 -5
11 -11 11 -5 0 -7 -4 -4 -10 7 -11 -23 -2 -42 12 -6 5 -33 7 -60 4 -36 -5 -43
-4 -28 4 15 8 8 9 -30 5 -31 -3 -43 -2 -30 4 14 6 -13 13 -95 26 -63 10 -134
18 -157 19 -22 0 -39 4 -37 8 3 4 -3 5 -12 1 -11 -4 -15 -2 -11 4 3 5 -11 19
-31 31 -20 11 -45 30 -55 42 -18 22 -32 104 -16 94 6 -3 7 6 4 23 -5 22 -4 25
5 13 9 -12 10 -9 5 13 -3 16 -2 26 3 23 10 -6 46 63 38 72 -3 2 6 13 19 24 26
20 35 45 13 32 -8 -4 -10 -3 -5 2 5 5 12 9 16 9 5 0 20 14 35 32 15 18 55 51
89 74 34 22 61 46 59 51 -2 6 4 8 13 4 11 -4 14 -2 9 6 -5 8 -2 9 9 5 22 -8
49 2 40 16 -4 6 0 8 11 4 11 -5 15 -3 10 5 -5 8 -2 9 10 5 11 -4 15 -3 10 4
-4 7 0 9 14 5 13 -5 23 -2 29 8 4 8 15 14 23 14 8 -1 24 0 35 1 17 1 18 3 5
11 -17 11 -19 10 48 16 19 1 43 11 55 21 11 10 17 12 13 6 -9 -16 -6 -16 34 1
25 10 29 14 15 20 -20 7 -23 7 -58 -6z"/>
  </g>
  </g>
</svg>