<?xml version="1.0" encoding="UTF-8"?>
<svg xmlns="http://www.w3.org/2000/svg" version="1.1"
     width="752" height="560" viewBox="0 0 7520 5600">
  
  <!-- VARIABLE: Background — change fill to customize -->
  <rect id="background" width="100%" height="100%" fill="white"/>
  <g transform="translate(0,5600) scale(1,-1)">
  
  <!-- VARIABLE: Skin/body color — change fill to customize -->
  <g id="skin" fill="#c4a87a">
    <path d="M3480 4989 c-868 -97 -1622 -615 -2005 -1378 -99 -197 -155 -357
-199 -570 -42 -200 -64 -448 -51 -567 7 -66 7 -66 40 -34 18 18 38 29 44 25 7
-3 10 -1 9 6 -4 18 117 85 187 104 337 91 683 -99 778 -424 23 -79 26 -219 8
-306 -7 -33 -28 -91 -46 -130 -38 -79 -118 -181 -140 -179 -8 1 -13 -2 -10 -6
11 -18 -105 -94 -198 -131 -27 -11 -81 -24 -120 -30 -84 -12 -200 -3 -190 15
3 6 0 5 -8 -2 -11 -10 -17 -8 -32 10 -55 68 90 -156 163 -251 325 -424 774
-731 1296 -886 221 -66 418 -95 689 -102 235 -6 381 6 595 48 323 63 673 208
935 388 254 173 464 377 630 611 111 157 112 147 -13 142 -166 -6 -280 28
-399 119 -107 83 -180 189 -224 324 -31 96 -30 240 1 340 79 255 321 435 583
435 169 0 281 -44 421 -168 32 -28 53 -39 59 -33 14 14 1 437 -17 553 -70 433
-260 850 -542 1184 -491 584 -1205 908 -1984 903 -102 -1 -219 -5 -260 -10z
m351 -459 c38 -17 73 -68 73 -107 1 -18 4 -33 7 -33 3 0 4 -13 1 -30 -2 -16
-8 -27 -13 -24 -5 3 -6 -2 -3 -11 9 -22 -57 -82 -104 -95 -52 -14 -81 -12
-128 9 -73 33 -114 112 -94 182 34 116 146 163 261 109z m-295 -430 c68 -26
120 -116 104 -184 -7 -32 -49 -112 -50 -93 0 4 -9 -2 -19 -12 -63 -63 -201
-37 -249 47 -49 87 -14 199 73 238 36 16 104 18 141 4z m535 0 c61 -17 109
-88 109 -162 0 -48 -26 -95 -71 -127 -82 -60 -206 -34 -248 52 -27 56 -27 102
2 157 36 73 118 105 208 80z m-1647 -370 c227 -58 384 -239 402 -465 14 -171
-71 -344 -219 -448 -223 -157 -494 -134 -682 57 -117 119 -163 239 -152 402 4
76 10 97 47 172 73 147 187 241 342 282 95 25 166 25 262 0z m2929 -9 c95 -33
155 -71 222 -142 196 -208 195 -491 -2 -700 -159 -169 -400 -214 -607 -115
-173 83 -280 238 -301 437 -25 232 166 478 415 534 82 19 195 13 273 -14z
m-1266 -201 c59 -36 81 -118 45 -171 -9 -14 -86 -92 -170 -175 -152 -149 -152
-149 -152 -205 0 -65 23 -103 76 -125 44 -18 78 -18 119 2 54 25 68 56 70 156
2 113 13 128 96 128 76 0 83 -11 77 -139 -4 -112 -28 -171 -91 -227 -62 -56
-120 -78 -212 -78 -66 -1 -88 3 -128 23 -26 14 -54 32 -63 42 -15 17 -18 16
-59 -16 -146 -111 -373 -43 -455 136 -15 34 -20 66 -20 141 0 112 4 118 86
118 73 0 84 -16 84 -117 0 -90 8 -115 49 -150 78 -68 201 -21 216 81 4 24 4
55 0 68 -4 12 -81 98 -171 189 -156 158 -164 167 -164 205 0 51 17 83 59 111
34 23 37 23 355 23 301 0 323 -1 353 -20z"/>
    <path d="M6104 1928 c-7 -12 5 -61 16 -68 8 -5 6 -9 -4 -13 -9 -4 -15 -14 -15
-24 1 -16 2 -16 6 -1 2 10 10 15 18 12 16 -6 14 11 -4 59 -9 24 -8 27 8 27 11
0 26 3 34 6 9 3 17 0 20 -8 3 -9 4 -8 3 2 -1 10 -13 15 -40 15 -21 0 -40 -3
-42 -7z"/>
  </g>
  
  <!-- FIXED: Details, eyes, accessories — do not change -->
  <g id="details" fill="#5a3e28">
    <path d="M3455 4994 c-52 -10 -57 -12 -21 -8 27 2 64 4 82 4 19 0 34 5 34 10
0 12 -4 12 -95 -6z"/>
    <path d="M3570 5004 c8 -1 119 -4 245 -6 127 -2 208 0 180 3 -49 7 -455 10
-425 3z"/>
    <path d="M4050 4990 c0 -6 13 -10 28 -10 41 0 283 -46 369 -70 78 -22 103 -25
63 -8 -55 22 -300 76 -385 84 -27 3 -56 7 -62 9 -7 2 -13 0 -13 -5z"/>
    <path d="M3180 4950 c-113 -25 -401 -119 -463 -152 -38 -20 -8 -18 39 3 111
48 217 83 359 120 128 33 172 52 65 29z"/>
    <path d="M4590 4869 c29 -12 136 -53 165 -63 11 -4 7 0 -9 9 -33 19 -156 65
-171 64 -5 0 1 -5 15 -10z"/>
    <path d="M4886 4746 c324 -155 610 -377 839 -651 48 -58 90 -103 93 -101 5 6
-18 37 -105 134 -72 82 -253 263 -253 254 0 -3 -11 5 -25 18 -13 12 -22 27
-18 33 3 6 1 7 -4 4 -12 -7 -103 58 -103 74 0 6 -4 8 -9 5 -5 -4 -11 -3 -13 2
-1 4 -28 23 -58 42 -30 19 -57 37 -60 40 -23 28 -355 200 -383 200 -7 -1 38
-25 99 -54z"/>
    <path d="M2577 4731 c-54 -27 -104 -55 -112 -61 -8 -7 -15 -9 -15 -6 0 4 -7 1
-15 -6 -28 -26 -58 -46 -115 -77 -61 -34 -224 -163 -328 -258 -19 -18 -39 -33
-45 -33 -6 0 -8 -3 -4 -6 7 -8 -34 -54 -48 -54 -7 0 -23 -14 -36 -31 -23 -30
-32 -40 -96 -113 -18 -20 -33 -40 -33 -45 0 -9 -74 -111 -106 -146 -10 -11
-19 -25 -20 -32 -1 -7 -11 -25 -22 -40 -24 -35 -44 -73 -38 -73 2 0 22 28 42
63 65 106 207 287 314 400 199 209 400 359 685 509 134 70 128 77 -8 9z"/>
    <path d="M3725 4552 c-99 -10 -175 -104 -158 -195 12 -68 94 -136 163 -137 72
0 180 68 166 105 -3 9 -2 14 3 11 5 -3 11 8 13 24 3 17 2 30 -1 30 -3 0 -6 15
-7 33 -1 74 -91 138 -179 129z"/>
    <path d="M3395 4096 c-87 -39 -122 -151 -73 -238 48 -84 186 -110 249 -47 10
10 19 16 19 12 1 -19 43 61 50 93 16 68 -36 158 -104 184 -37 14 -105 12 -141
-4z"/>
    <path d="M3930 4088 c-33 -17 -51 -35 -67 -68 -29 -55 -29 -101 -2 -157 27
-56 77 -83 152 -83 118 0 194 107 156 221 -33 97 -141 136 -239 87z"/>
    <path d="M5897 3863 c154 -236 275 -519 338 -788 13 -55 24 -93 24 -85 1 17
-21 125 -39 190 -7 25 -13 50 -14 55 -1 6 -17 55 -36 110 -19 55 -35 102 -35
105 -5 24 -175 349 -195 372 -18 22 -56 82 -63 101 -3 9 -11 17 -16 17 -5 0
-13 9 -16 20 -3 11 -10 20 -15 20 -5 0 25 -53 67 -117z"/>
    <path d="M2162 3730 c-155 -41 -269 -135 -342 -282 -37 -75 -43 -96 -47 -172
-11 -163 35 -283 152 -402 188 -191 459 -214 682 -57 273 191 296 565 48 791
-67 62 -136 98 -231 122 -96 25 -167 25 -262 0z"/>
    <path d="M5080 3735 c-101 -23 -185 -70 -259 -144 -112 -112 -170 -258 -156
-390 21 -199 128 -354 301 -437 207 -99 448 -54 607 115 197 209 198 492 2
700 -129 136 -318 196 -495 156z"/>
    <path d="M1513 3707 c-27 -45 -122 -243 -140 -292 -13 -35 -28 -71 -41 -97 -2
-5 1 -8 6 -8 5 0 22 35 37 78 15 42 59 139 96 215 66 131 83 174 42 104z"/>
    <path d="M3379 3517 c-42 -28 -59 -60 -59 -111 0 -38 8 -47 164 -205 90 -91
167 -177 171 -189 4 -13 4 -44 0 -68 -15 -102 -138 -149 -216 -81 -41 35 -49
60 -49 150 0 101 -11 117 -84 117 -82 0 -86 -6 -86 -118 0 -75 5 -107 20 -141
32 -69 78 -120 139 -150 109 -56 232 -50 316 14 41 32 44 33 59 16 9 -10 37
-28 63 -42 40 -20 62 -24 128 -23 92 0 150 22 212 78 63 56 87 115 91 227 6
128 -1 139 -77 139 -83 0 -94 -15 -96 -128 -2 -100 -16 -131 -70 -156 -41 -20
-75 -20 -119 -2 -53 22 -76 60 -76 125 0 56 0 56 152 205 84 83 161 161 170
175 36 53 14 135 -45 171 -30 19 -52 20 -353 20 -318 0 -321 0 -355 -23z"/>
    <path d="M1261 3027 c-20 -84 -41 -257 -39 -322 2 -59 2 -59 5 -10 5 83 23
215 39 298 18 89 14 114 -5 34z"/>
    <path d="M6288 2599 c3 -157 1 -238 -6 -243 -5 -3 -32 13 -58 37 -140 123
-252 167 -421 167 -262 0 -504 -180 -583 -435 -31 -100 -32 -244 -1 -340 44
-135 117 -241 224 -324 119 -91 233 -125 399 -119 105 4 107 4 96 -16 -25 -48
-147 -216 -206 -283 -34 -40 -59 -73 -55 -73 10 0 83 80 83 91 0 5 4 9 10 9 8
0 56 63 110 145 54 82 82 123 101 144 12 15 19 34 16 47 -2 13 -1 21 3 19 12
-8 33 23 27 39 -4 10 -1 13 8 10 9 -4 18 8 27 38 7 23 12 49 11 56 0 6 3 12 7
12 4 0 17 15 28 34 15 26 17 37 9 46 -9 10 -9 11 1 6 15 -9 15 -1 0 27 -10 20
-10 21 5 9 13 -11 17 -10 27 8 7 12 10 31 7 41 -3 12 -1 17 6 12 6 -4 8 2 5
15 -4 14 -2 20 5 15 6 -4 8 2 5 15 -4 12 -3 20 2 17 10 -6 23 43 14 57 -4 6
-3 8 3 5 14 -9 25 35 16 59 -5 13 -3 15 7 9 10 -6 12 -2 8 18 -3 16 -1 24 5
20 9 -6 7 14 -9 64 -3 11 0 8 9 -6 14 -24 14 -24 19 2 3 15 1 24 -3 21 -5 -3
-9 0 -9 5 0 6 5 11 11 11 7 0 9 10 5 26 -4 15 -3 23 3 20 13 -8 24 64 16 108
-5 25 -4 36 5 36 8 0 11 9 8 25 -3 14 -1 25 3 25 10 0 10 369 0 450 -4 30 -5
-51 -3 -181z m-102 -679 c1 -10 0 -11 -3 -2 -3 8 -11 11 -20 8 -8 -3 -23 -6
-34 -6 -16 0 -17 -3 -8 -27 18 -48 20 -65 4 -59 -8 3 -16 -2 -18 -12 -4 -15
-5 -15 -6 1 0 10 6 20 15 24 10 4 12 8 4 13 -11 7 -23 56 -16 68 2 4 21 7 42
7 27 0 39 -5 40 -15z"/>
    <path d="M1542 2584 c-103 -22 -240 -93 -226 -116 5 -7 3 -8 -5 -3 -8 4 -26
-5 -47 -26 -34 -33 -34 -33 -34 -1 0 18 -4 32 -8 32 -8 0 -7 -67 4 -168 3 -31
10 -50 16 -46 6 4 7 -10 2 -41 -5 -34 -4 -46 5 -41 7 5 9 -3 4 -25 -4 -23 -3
-30 5 -25 8 5 10 -2 5 -25 -4 -21 -2 -30 4 -26 6 4 8 -4 5 -20 -4 -19 -2 -24
8 -18 9 5 10 2 6 -13 -9 -27 3 -74 17 -65 6 3 7 1 3 -6 -9 -15 3 -73 14 -66 4
3 6 -5 2 -17 -4 -15 -2 -19 7 -13 10 6 11 2 6 -16 -7 -22 -7 -23 11 -9 18 14
18 14 0 -8 -17 -20 -15 -27 6 -23 4 0 5 -5 3 -12 -8 -19 11 -72 24 -69 7 1 10
-2 6 -8 -8 -12 4 -52 13 -46 4 2 8 -10 8 -27 1 -17 10 -38 21 -47 11 -8 18
-21 15 -28 -2 -6 4 -15 13 -18 13 -5 14 -8 3 -15 -10 -7 -9 -9 4 -9 10 0 17
-3 17 -7 -3 -21 2 -33 12 -27 7 4 7 -1 -1 -16 -11 -20 -10 -22 4 -17 9 4 15 3
15 -1 -3 -21 2 -32 13 -26 7 4 8 3 4 -4 -6 -10 27 -86 44 -102 9 -9 37 -55 40
-65 1 -5 5 -12 9 -15 4 -3 20 -23 37 -45 16 -22 35 -46 42 -53 6 -7 12 -17 12
-21 0 -4 15 -23 33 -42 17 -20 55 -62 82 -94 58 -67 50 -59 151 -155 75 -72
125 -113 252 -207 31 -23 78 -58 104 -77 25 -20 50 -36 55 -36 5 0 40 -18 77
-41 37 -22 72 -39 78 -37 5 2 -14 17 -43 33 -350 188 -679 492 -894 824 -45
69 -46 74 -30 90 10 9 15 11 12 5 -10 -18 106 -27 190 -15 39 6 93 19 120 30
93 37 209 113 198 131 -3 4 2 7 10 6 22 -2 102 100 140 179 18 39 39 97 46
130 18 87 15 227 -8 306 -91 312 -419 504 -741 433z"/>
    <path d="M5565 864 c-110 -105 -218 -192 -340 -275 -256 -175 -582 -312 -915
-385 -62 -14 -89 -22 -65 -22 22 1 47 5 55 9 8 4 33 9 55 12 40 5 214 55 268
76 16 6 33 9 38 5 5 -3 9 0 9 6 0 6 5 8 10 5 6 -3 10 -2 10 2 0 5 35 21 78 37
42 16 113 46 158 67 44 22 86 39 92 39 7 0 12 4 12 9 0 7 118 75 130 74 3 0
10 7 17 16 7 9 13 13 13 9 0 -5 8 -1 18 8 9 8 53 42 97 76 148 111 177 135
293 243 44 41 81 86 70 85 -2 -1 -48 -44 -103 -96z"/>
    <path d="M2572 416 c10 -7 68 -34 130 -60 62 -26 127 -54 143 -61 17 -7 41
-16 55 -20 14 -3 75 -21 135 -40 104 -31 262 -62 271 -52 2 2 -38 11 -90 21
-165 29 -344 89 -601 200 -33 14 -52 20 -43 12z"/>
    <path d="M4055 165 c-90 -13 -90 -13 -9 -8 44 2 96 8 115 13 52 12 0 10 -106
-5z"/>
    <path d="M3515 149 c48 -7 456 -10 425 -3 -8 1 -118 4 -245 6 -126 2 -207 1
-180 -3z"/>
  </g>
  </g>
</svg>